<svg version="1.1" id="Слой_1" xmlns="http://www.w3.org/2000/svg" x="0" y="0" viewBox="0 0 230.7 55.2" xml:space="preserve"><style>.st1{fill:#00091c}.st2{fill:#c16547}.st3{fill:#fff}</style><path class="st1" d="M5.7 11.6c.1 0 .1 0 .1.1v.8c0 .2-.1.5-.1.9l.1.4c0 .1-.1.2-.1.3 0 .1-.1.3-.1.4 0 .2-.1.3-.1.4 0 .1-.1.2-.1.3 0 .1-.1.2-.1.3 0 .1 0 .2-.1.3 0 .3-.1.5-.1.7 0 .2-.1.4-.2.7-.1.2-.1.4-.2.9-.1.4-.2 1-.4 1.7-.1.3-.2.5-.2.7-.1.2-.2.2-.3.2h-.1v-.5l.1-.5v-.2c0-.1 0-.4.1-.8s.2-1 .3-1.7c0-.2.1-.5.1-.8v-.1s-.1 0-.1.1l-.2-.1s-.1 0-.1.1c-.1.1-.1.1-.2.1h-.6c-.1 0-.2 0-.3.1-.1 0-.2.1-.3.2-.2 0-.4.1-.5.1-.1.1-.3.1-.4.2-.1 0-.1.1-.2.1 0 0-.1.1-.1.3v1.3c0 .1.1.2.1.2h.1s.1 0 .1-.1l.1-.1.1-.1h.1v.1c0 .1-.1.2-.1.2 0 .1-.1.1-.1.2-.1.2-.2.4-.4.6-.1.1-.2.2-.3.2-.1.1-.2.2-.3.2-.1 0-.2-.1-.2-.4-.1-.3-.1-.7-.1-1.3v-.6c0-.2-.1-.3-.1-.4-.2-.2-.2-.3-.3-.4v-.3c0-.1.1-.1.1-.2.1-.1.1-.1.1-.2 0 0 0-.1.1-.1 0-.1 0-.1.1-.3 0-.1 0-.2.1-.4 0-.1 0-.2.1-.4v-.6c0-.4.1-.8.1-1 .1-.2.1-.4.1-.4v-.4c0-.1 0-.3.1-.5L1 12l.1-.1c.3-.1.4-.2.4-.2.1 0 .3 0 .3.1.1.1.2.2.2.4v.2c0 .1 0 .2-.1.3 0 .1-.1.3-.1.5s-.1.6-.1 1c0 .3-.1.5-.1.8 0 .2-.1.5-.1.7v.2H2s.2 0 .4-.1h1.9c.1 0 .2 0 .3-.1h.1s.1 0 .1-.1 0-.1.1-.2c0-.1.1-.2.1-.3v-.3c0-.1 0-.3.1-.4.1-.3.1-.6.1-.8V13l-.1-.1c0-.1.1-.1.1-.2.1-.1.2-.3.2-.4.1-.1.1-.2.2-.2l.2-.2c-.3-.1-.2-.2-.1-.3m0 6.6s.1 0 0 0c0-.1.1-.1.1-.1l.2-.2.3-.3c.1-.1.2-.2.3-.4.1-.1.2-.2.3-.4.1-.1.1-.2.2-.3.1-.1.2-.3.3-.4.2-.1.3-.1.4-.2H8c.1 0 .1 0 .1.1v.4c0 .1-.1.2-.1.2 0 .1-.1.3-.1.4 0 .1-.1.3-.1.4 0 .2-.1.3-.1.5v.9c0 .1.1.2.1.1l.1-.1c.1 0 .1-.1.2-.1.1-.1.2-.2.2-.3.1-.1.2-.2.3-.4.1-.1.1-.2.2-.3l.1-.1.1-.1c.1-.2.2-.3.3-.4.1-.1.2-.1.3-.1h.2c.1 0 .1.1.1.1v.8c0 .1 0 .3.1.3.1.1.1.1.2.1h.2l.2.6c-.2.1-.4.3-.6.3-.2.1-.3.1-.3.1-.2 0-.4-.1-.5-.2-.1-.1-.2-.3-.3-.5 0 0 0-.1-.1-.1l-.1-.1-.1.1c0 .1-.1.1-.1.2-.1.1-.2.3-.3.4-.1.1-.2.3-.3.4-.1.2-.3.3-.4.4-.1.1-.3.1-.4.1-.2 0-.3-.1-.4-.2-.1-.1-.2-.3-.2-.5s-.1-.4-.1-.5v-.5c0-.1 0-.1-.1-.1l-.3.4s0 .1-.1.1c0 0-.1.1-.1.2 0-.1 0-.1-.1-.2.1-.2.1-.3 0-.5m5 0c.1-.1.1-.1.1-.2l.1-.1.2-.2.3-.3c.1-.1.2-.3.3-.5.1-.3.2-.5.3-.6l.4-.8c.1-.2.2-.5.3-.7.1-.2 1.3-.4 1.1.1-.2.5-.6 1.2-.7 1.4-.1.2-.2.5-.3.8-.1.2-.1.4-.2.7-.1.2-.1.5-.2.7-.1.2-.1.4-.1.5v.3h.1l.1-.1c.1-.1.2-.2.2-.4.1-.1.2-.3.2-.5v-.2c0-.3.1-.4.2-.6.1-.1.3-.2.5-.2 0 0 .1-.1.2-.3.1-.2.3-.5.5-.9.1-.2.2-.4.3-.5.1-.1.1-.2.2-.2s.2 0 .2.1.1.2.1.3c0 .3-.2.7-.5 1.2s-.5.8-.5.9c0 .1.1.3.3.5.2.2.3.3.5.3h.1c.1 0 .1-.1.2-.1s.1-.1.2-.1c0 0 .1-.1.2-.1l.2.6-.3.3-.3.3c-.1.1-.2.2-.3.2-.1.1-.2.1-.3.1-.1 0-.3-.1-.6-.4-.3-.2-.4-.4-.5-.4l-.4.4c-.1.1-.1.2-.2.3-.1.1-.1.2-.2.3l-.1.1-.1.1c-.1.1-.1.2-.2.2-.1.1-.2.1-.3.1-.2 0-.3 0-.4-.1-.1-.1-.1-.2-.1-.4s0-.4.1-.6c0-.2.1-.4.2-.7 0-.1 0-.2.1-.3v-.3l-.2.2-.3.3-.1.1s-.1.1-.1.2c0-.1 0-.1-.1-.2 0-.1-.1-.2-.1-.3l-.3-.3c0 .1 0 0 0 0"/><path class="st1" d="M15.4 18.2l.1-.1s.1-.1.1-.2l.5-.3c.1-.1.1-.2.3-.3.1-.1.3-.2.4-.4 0 0 .1-.1.1-.2s.1-.1.2-.2.1-.1.2-.1.1-.1.2-.1l.2-.2.2-.2c.1-.1.1-.1.2-.1h.4l.1.1c0 .1-.1.2-.1.3v.1c.2-.1.3-.1.4-.1h.2c.3 0 .5.1.7.3.1.2.2.4.2.8v.2c0 .1 0 .2-.1.3 0 .1-.1.2-.1.3 0 .1-.1.1-.1.2s0 .1.1.1h.2s.1 0 .1-.1c0 .1.1.2.1.3 0 .1.1.2.1.3l-.2.2-.2.2c-.1.1-.2.1-.3.2-.1 0-.2.1-.2.1-.1 0-.2 0-.2-.1-.1 0-.1-.1-.1-.2-.1.1-.2.3-.4.4-.1.1-.3.2-.5.3-.1 0-.2.1-.3.1h-.4c-.2 0-.4-.1-.6-.3-.2-.2-.3-.4-.3-.6 0-.1 0-.2.1-.4 0-.2.1-.3.1-.3v-.1h-.1s-.1 0-.1.1c-.1.1-.2.1-.3.3v.1s0 .1-.1.1c0-.1-.1-.2-.1-.3-.6-.3-.6-.4-.7-.5m2.9-1.1s0 .1 0 0c-.1.1-.2.1-.2.2-.1.1-.1.2-.2.3l-.1.1c-.1 0-.1 0-.2.1 0 0-.1 0-.1.1s-.1.2-.1.3c0 .1-.1.2-.1.3v.2c0 .1 0 .2.1.3.1.1.1.1.3.1.2 0 .4-.1.5-.2.2-.1.3-.3.4-.5l.2-.2.1-.1c0-.1 0-.1.1-.2l.1-.3c0-.1-.1-.2-.1-.3 0-.1-.1-.1-.1-.1h-.1c-.2 0-.3 0-.5-.1z"/><path class="st1" d="M19.8 18.2c.1-.1.1-.2.2-.3.3-.2.5-.5.7-.7.2-.2.3-.4.4-.6l-.1-.2.4-.4c.2-.1.4-.2.5-.2.1 0 .3 0 .3.1l.3.3.1.1c.2.1.3.3.4.5.1.2.1.5.1.8 0 .2-.1.4-.2.7-.1.3-.2.5-.2.7h.1c.1 0 .1 0 .2-.1.1 0 .2-.1.2-.2.2-.2.3-.3.4-.3 0 0 .1-.1.2-.1 0 .1.1.2.1.3 0 .1.1.2.1.3l-.1.1s-.1.1-.2.1c-.1.1-.3.2-.5.4-.2.1-.5.3-.8.5h-.3c-.2 0-.3 0-.4-.1-.1-.1-.1-.1-.1-.2v-.2c0-.1 0-.1.1-.2 0-.1 0-.1.1-.2 0-.1.1-.1.1-.2.1-.3.2-.5.2-.7 0-.2.1-.4.1-.6 0-.2 0-.4-.1-.5-.1-.1-.2-.2-.3-.2-.1 0-.2.1-.3.2l-.3.3c-.1.1-.2.3-.3.4l-.2.2c0 .1-.1.1-.2.2s-.2.2-.3.2v.1s0 .1-.1.1c0-.1-.1-.2-.1-.3-.1.1-.2 0-.2-.1"/><path class="st1" d="M23.8 18.2l.1-.1c0-.1.1-.1.2-.2.1 0 .1-.1.2-.2s.1-.2.2-.3c0-.1.1-.1.1-.2s.1-.2.2-.3c0-.1.1-.2.2-.4.1-.1.2-.3.4-.5s.4-.5.7-.8c.1-.2.3-.3.4-.4.1-.1.3-.1.5-.1.1 0 .2.1.3.2.1.1.1.2.1.4 0 .1 0 .2-.1.3-.1.2-.2.3-.4.6l-.4.4-.4.4-.2.2-.2.2c0 .1-.1.2-.1.3v.4c0 .1.1.2.1.3 0 0 .1.1.1.2.1.1.2.2.3.4l.1.1.1.1c.1 0 .2-.1.3-.3.2-.2.4-.5.7-.8l.2.6-.2.2c-.1.1-.2.2-.3.4-.1.2-.3.3-.4.5 0 0 0 .1.1.1 0 .1.1.1.1.2.1.1.2.3.3.5.1.2.1.4.2.7v.3c0 .5-.3.9-.8 1.4-.5.5-1 .7-1.5.7-.2 0-.4 0-.5-.1-.1-.1-.2-.1-.3-.2v-1c0-.1.1-.2.1-.3 0-.1.1-.2.1-.2 0-.1.1-.2.2-.3.1-.1.1-.2.2-.2.1-.1.1-.2.2-.2.1-.1.2-.3.3-.4l.2-.2c0-.1.1-.1.1-.2-.1-.2-.3-.4-.4-.5-.1-.2-.3-.4-.4-.5-.1-.2-.1-.4-.2-.6v-.1l-.3.3c0-.1 0-.1-.1-.2-.3-.3-.4-.4-.4-.6m1.9 2.6l-.2.2c-.1.1-.2.3-.4.5-.1.1-.2.3-.3.4-.1.1-.2.3-.3.4 0 0-.1.1-.1.3-.1.2-.1.3-.1.3 0 .1 0 .1.1.2 0 0 .1.1.2.1.3 0 .6-.2.9-.5.3-.3.5-.7.5-1v-.2c0-.1-.1-.2-.1-.3-.1-.1-.1-.2-.2-.3.1-.1.1-.1 0-.1z"/><path class="st1" d="M27.3 18l.5-.4.1-.1.1-.1c0-.1.1-.1.1-.1s.1-.1.2-.1c0 0 .1-.1.1-.2l.2-.2s.1-.1.2-.1.1-.1.2-.2c.4-.3.7-.6 1-.8.3-.2.5-.3.7-.3.1 0 .2 0 .2.1 0 0 .1.1.1.2v.2c0 .1-.1.1-.1.2-.1.1-.2.2-.3.2-.1.1-.1.2-.2.3l-.3.3c0 .1-.1.1-.1.1l-.1.1-.2.2c0 .1-.1.2-.3.3l-.5.5s-.1.1-.1.2c-.1.1-.2.2-.3.4v.1c.1 0 .2-.1.3-.1l.3-.3.3-.3.2-.2h.1s.1 0 .1-.1l.5-.5c.2-.1.3-.2.4-.2.1 0 .1 0 .2.1 0 .1.1.2.1.3v.6c0 .1 0 .2.1.3.1.1.2.2.3.2h.1s.1 0 .1-.1l.1-.1.1-.1h.1s.1 0 .1-.1c.1.1.1.2.1.3 0 .1.1.2.1.2l-.3.3-.3.3c-.1.1-.2.2-.3.2-.1 0-.2.1-.3.1-.3 0-.5-.1-.6-.2-.1-.1-.2-.4-.2-.7v-.1s0-.1-.1-.1l-.1.1-.1.1c-.1 0-.1.1-.2.1-.1.1-.2.1-.3.2l-.4.4-.2.2c-.1.1-.2.1-.3.2-.1.1-.2.1-.4.2-.1 0-.2.1-.2.1h-.1c-.2 0-.3 0-.4-.1-.1-.1-.1-.2-.1-.4 0-.1 0-.2.1-.3 0-.1.1-.2.2-.3v-.3c0-.1-.1-.1-.1-.2s-.1-.1-.1-.2l.1-.1c-.3-.1-.3-.2-.2-.2m7.5.2c.1-.1.1-.2.2-.2 0 0 .1-.1.2-.1l.2-.2.3-.3c.1-.1.2-.3.4-.4.1-.1.1-.2.2-.3.1-.1.2-.2.3-.4.1-.1.2-.2.4-.3.1-.1.3-.1.4-.1.1 0 .2 0 .3.1.1.1.1.2.1.4 0 .1 0 .3-.1.5-.1.3-.2.6-.3 1 0 .1-.1.2-.1.2v.3h.1l.1-.1c0-.1.1-.1.1-.2l.2-.2c0-.1.1-.1.1-.2l.2-.2.1-.1.1-.1.2-.2c.1-.1.2-.1.3-.2.1-.1.2-.1.3-.1h.2c.1 0 .2 0 .3.1.1.1.2.2.2.3.1.2.2.5.2.7 0 .1.1.2.1.3.1.1.1.1.2.1h.1s.1 0 .1-.1l.2.6-.2.2-.2.2c-.1.1-.2.1-.3.2-.1 0-.2.1-.2.1-.1 0-.2 0-.3-.1-.1 0-.2-.1-.2-.2 0 0-.1-.1-.1-.2s-.1-.2-.2-.3l-.2-.2c-.1-.1-.1-.2-.2-.3h-.1c-.1 0-.2.1-.2.1-.1 0-.2.1-.2.2-.2.2-.3.3-.4.3-.1 0-.1.1-.2.1-.1.1-.2.2-.3.4-.1.2-.3.3-.5.5l-.2.2c-.1.1-.1.1-.2.1s-.1.1-.2.1h-.2c-.2 0-.2-.1-.3-.2v-.3c.1-.2.1-.4.2-.6.1-.3.2-.5.3-.9v-.1s0-.1.1-.1v-.3h-.1s-.1 0-.2.1c-.1 0-.1.1-.2.2l-.3.3-.1.1-.1.1-.2.2v.1s0 .1-.1.1c0-.1 0-.1-.1-.2.1-.2 0-.3 0-.5"/><path class="st1" d="M40.5 18.2c0-.1.1-.2.2-.3l.3-.3v-.4c0-.1 0-.1.1-.2 0-.1.1-.2.1-.2 0-.1.1-.2.1-.3.1-.1.1-.3.2-.4l.3-.3.3-.3.1-.1c.1 0 .1-.1.2-.1h.6c.1 0 .1.1.2.1l.1.1c0 .1.1.1.1.2v.3s0 .1-.1.2l-.1.2c-.1.2-.2.4-.4.7-.2.3-.5.5-.8.9l-.1.1v.3c0 .1.1.1.1.1s.1 0 .2.1c.1 0 .2 0 .2.1.2 0 .3 0 .4-.1.1 0 .2-.1.3-.1 0 0 .1 0 .1-.1l.1-.1c.1.1.1.2.1.3 0 .1.1.2.1.2-.2.2-.4.4-.6.5-.2.1-.4.2-.5.2-.1 0-.1.1-.2.1h-.3c-.1 0-.3 0-.4-.1-.1 0-.2-.1-.3-.2 0 0-.1-.1-.1-.2s-.1-.2-.1-.3c0-.1-.1-.2-.1-.2l-.1-.1h-.1l-.1.1c0-.1 0-.1-.1-.2.1.1.1 0 0-.2m1.9-1.9c-.1 0-.2.1-.4.3-.1.2-.2.4-.2.5v.1h.1s.1 0 .1-.1l.1-.1.1-.1.1-.1c0-.1.1-.1.1-.2v-.2c.1 0 .1-.1 0-.1.1 0 0 0 0 0zm4.2 1.9c0-.1.1-.1.2-.2l.3-.3c0-.1.1-.3.1-.4 0-.2.1-.4.1-.6 0-.2.1-.4.1-.6 0-.2.1-.3.1-.4.2-.6.3-1 .4-1.3.1-.3.2-.5.2-.5.1-.4.3-.7.4-1 .1-.3.3-.5.4-.7l.1-.1.1-.1c.1-.1.3-.1.4-.2.1 0 .1-.1.2-.1h.2c.1 0 .2.1.3.2.1.1.1.3.1.5 0 .1 0 .3-.1.4 0 .2-.1.3-.2.5-.1.3-.2.5-.2.7-.1.2-.1.3-.1.3 0 .1-.1.2-.1.3-.1.1-.1.3-.2.5s-.2.4-.3.5c-.1.1-.1.2-.1.2l-.1.1-.1.1s0 .1-.1.1c-.1.1-.2.3-.3.5-.1.2-.3.4-.4.7-.1.1-.2.2-.2.3 0 .1-.1.2-.1.3v.5c0 .1 0 .2.1.3 0 .1 0 .2.1.3 0 .1.1.2.1.3.1.1.1.1.2.1.2 0 .3 0 .4-.1.1-.1.2-.2.2-.4-.1 0-.2-.1-.2-.2-.1-.1-.1-.1-.1-.2 0 0 0-.1.1-.1v-.3c.2-.3.4-.6.5-.8.2-.2.3-.3.4-.3h.4c.1 0 .1 0 .1.1v.2c0 .2-.1.4-.1.6.1.2.1.3.1.4v.1h.1s.1 0 .1-.1c0 .1 0 .1.1.2 0 .1.1.1.1.2v.2l-.4.4c-.1.1-.2.1-.3.1h-.2l-.2.2-.3.3-.1.1c-.1 0-.1.1-.2.2l-.3.3c-.1.1-.2.1-.3.1h-.2c-.1 0-.1 0-.2-.1 0 0-.1-.1-.2-.1s-.1-.1-.2-.1c-.1-.2-.1-.5-.2-.7 0-.2-.1-.4-.1-.6v-.2h-.1l-.1.1c0-.1-.1-.2-.1-.3 0-.2-.1-.3-.1-.4m2.8-4.8c0-.1 0-.1 0 0-.1-.1-.1-.1 0 0-.1-.1-.1-.1-.1 0s-.1.1-.1.2-.1.2-.1.3c-.1.1-.1.2-.2.4-.1.1-.2.3-.2.4-.1.2-.1.3-.2.5s-.2.4-.2.6c0 .2-.1.3-.1.4v.1l.2-.2c.1-.1.2-.3.3-.6.1-.2.2-.4.2-.5.1-.1.1-.2.1-.3 0-.1.1-.2.1-.4 0-.1.1-.3.1-.5 0-.1.1-.1.1-.2s0-.1.1-.2z"/><path class="st1" d="M50.2 18.2l.1-.1.1-.1.4-.3.4-.4c.2-.2.4-.5.7-.8l.1-.1h.2c.3 0 .6.1.7.3.2.2.2.6.2 1s-.1.7-.4 1.1c-.3.4-.4.6-.4.8v.2l.1.1c.1 0 .1-.1.2-.1s.1-.1.2-.2l.5-.5.3-.3.5-.5.2.6c-.1.1-.3.2-.5.4s-.4.4-.7.6l-.2.2c-.1.1-.2.1-.3.2l-.1.1-.1.1s0 .1-.1.2c0 .1 0 .2.1.4s.1.4.1.6c0 .3-.1.6-.3 1-.2.3-.5.6-.9.9-.2.2-.5.3-.7.4-.2.1-.4.1-.6.1-.2 0-.4-.1-.5-.2-.1-.1-.2-.3-.2-.5 0-.1 0-.3.1-.5s.2-.4.4-.6c.1-.1.2-.3.4-.5.1-.2.3-.4.5-.6l.4-.4c.1-.1.1-.2.1-.2s0-.1-.1-.3c0-.2-.1-.3-.1-.4 0-.3.1-.6.4-1 .3-.4.4-.6.4-.8v-.2c0-.1-.1-.1-.1-.2s-.1-.2-.1-.2l-.1-.1s-.1 0-.2.1c-.1 0-.2.1-.2.2l-.2.2-.1.1-.1.1-.2.2s-.1 0-.1.1c-.1.1-.1.2-.2.3v-.5zm1.8 3.5s0-.1-.1-.2c0-.1-.1-.2-.1-.2-.1 0-.3.3-.8.8-.4.5-.6.9-.6 1v.2l.1.1c.3 0 .6-.1.9-.4.3-.3.5-.6.5-.8.1-.3.1-.4.1-.5zm2.3-3.5c.1-.1.2-.2.3-.4l.5-.5v-.1s0-.1.1-.2l.6-.9c.2-.3.3-.6.4-.9 0-.1.1-.2.1-.3 0-.1.1-.2.2-.3.1-.1.1-.2.2-.2.1-.1.1-.1.2-.1s.1 0 .2.1c0 .1.1.2.1.3 0 .1-.1.3-.2.8-.1.4-.3 1.1-.6 1.9-.1.2-.2.5-.2.8-.1.3-.2.8-.3 1.3v.3c0 .1 0 .2-.1.3-.1.3-.1.5-.1.6v.3s0-.1.1-.1c0-.1 0-.2.1-.3 0-.1 0-.2.1-.3v-.2c.1-.2.2-.5.3-.9.1-.4.3-.8.4-1.3.1-.1.1-.3.2-.4l.3-.6.2-.2c.1 0 .1-.1.2-.1s.2 0 .3.1c.1.1.2.1.3.3 0 0 .1.1.1.2.1.1.1.3.2.5.1.1.1.2.2.3.1.1.1.1.2.1l.3.6H59c-.1 0-.2.1-.4.1l-.4-.2c-.1 0-.2-.1-.4-.3-.1-.2-.3-.3-.3-.3-.1.1-.2.2-.3.4-.1.2-.2.4-.3.7 0 .1-.1.1-.1.2s-.1.2-.1.3c0 .2-.1.3-.1.4-.1.1-.1.3-.2.5s-.1.4-.2.7c0 .1-.1.2-.2.4s-.1.3-.1.4c0 .1 0 .1-.1.2 0 .1-.1.2-.1.3-.1.2-.2.3-.3.4-.4.1-.4.2-.5.2-.1 0-.2-.1-.3-.2-.1-.1-.1-.3-.1-.5 0-.3 0-.7.1-1.1 0-.4.1-.9.2-1.3 0-.1 0-.3.1-.4 0-.1.1-.3.1-.4 0-.2.1-.3.1-.5v-.4l-.2.2-.4.4c0-.1 0-.1-.1-.2 0-.2-.1-.3-.1-.5"/><path class="st1" d="M58.4 18.2l.1-.1s.1-.1.1-.2l.5-.3c.1-.1.1-.2.3-.3.1-.1.3-.2.4-.4 0 0 .1-.1.1-.2s.1-.1.2-.2.1-.1.2-.1.1-.1.2-.1l.2-.2.2-.2c.1-.1.1-.1.2-.1h.4l.1.1c0 .1-.1.2-.1.3v.1c.2-.1.3-.1.4-.1h.2c.3 0 .5.1.7.3.1.2.2.4.2.8v.2c0 .1 0 .2-.1.3 0 .1-.1.2-.1.3 0 .1-.1.1-.1.2s0 .1.1.1h.2s.1 0 .1-.1c0 .1.1.2.1.3 0 .1.1.2.1.3l-.2.2-.2.2c-.1.1-.2.1-.3.2-.1 0-.2.1-.2.1-.1 0-.2 0-.2-.1-.1 0-.1-.1-.1-.2-.1.1-.2.3-.4.4-.1.1-.3.2-.5.3-.1 0-.2.1-.3.1h-.4c-.2 0-.4-.1-.6-.3-.2-.2-.3-.4-.3-.6 0-.1 0-.2.1-.4 0-.2.1-.3.1-.3v-.1h-.1s-.1 0-.1.1c-.1.1-.2.1-.3.3v.1s0 .1-.1.1c0-.1-.1-.2-.1-.3-.6-.3-.6-.4-.7-.5m2.9-1.1s0 .1 0 0c-.1.1-.2.1-.2.2-.1.1-.1.2-.2.3l-.1.1s-.1 0-.2.1c0 0-.1 0-.1.1s-.1.2-.1.3c0 .1-.1.2-.1.3v.2c0 .1 0 .2.1.3.1.1.1.1.3.1.2 0 .4-.1.5-.2.2-.1.3-.3.4-.5l.2-.2.1-.1c0-.1 0-.1.1-.2l.1-.3c0-.1-.1-.2-.1-.3 0-.1-.1-.1-.1-.1h-.1c-.2 0-.3 0-.5-.1z"/><path class="st1" d="M62.8 18.2c.1-.1.1-.1.1-.2l.2-.2c.1 0 .1-.1.2-.1s.1-.1.2-.1c.3-.2.5-.4.7-.6.1-.1.3-.2.4-.3.1-.1.3-.2.4-.2.1-.1.2-.2.5-.3.2-.1.4-.2.6-.2h.1l.1.1v.3c0 .1 0 .2-.1.3-.1.1-.2.2-.3.2-.1 0-.2.1-.3.1-.1 0-.2.1-.3.1 0 0-.1.1-.3.2-.1.1-.3.3-.6.4-.1.1-.2.2-.3.2l-.2.2c0 .1-.1.2-.1.3v.5c0 .1.1.1.1.2 0 0 .1.1.2.1s.2.1.3.1c.1 0 .1 0 .2-.1.1 0 .2-.1.3-.1.1-.1.3-.2.4-.3.1-.1.3-.2.4-.3h.1s.1 0 .1-.1.1-.1.2-.2.2-.1.3-.2c.2.3.2.5.2.6-.1.1-.3.2-.4.4-.2.1-.3.2-.5.3-.1.1-.1.1-.2.1-.2.2-.4.4-.7.5-.3.1-.6.2-.9.2h-.3c-.1-.1-.2-.1-.3-.2-.1-.1-.2-.1-.2-.2-.1-.1-.1-.1-.1-.2s-.1-.1-.1-.2v-.6c0-.1-.1-.2-.1-.3.1 0 0-.1 0-.2m7.2.1c0-.1.1-.2.2-.3l.3-.3v-.4c0-.1 0-.1.1-.2 0-.1.1-.2.1-.2 0-.1.1-.2.1-.3.1-.1.1-.3.2-.4l.3-.3.3-.3.1-.1c.1 0 .1-.1.2-.1h.6c.1 0 .1.1.2.1l.1.1c0 .1.1.1.1.2v.3s0 .1-.1.2l-.1.2c-.1.2-.2.4-.4.7-.2.3-.5.5-.8.9l-.1.1v.3c0 .1.1.1.1.1s.1 0 .2.1c.1 0 .2 0 .2.1.2 0 .3 0 .4-.1.1 0 .2-.1.3-.1 0 0 .1 0 .1-.1l.1-.1c.1.1.1.2.1.3 0 .1.1.2.1.2-.2.2-.4.4-.6.5-.2.1-.4.2-.5.2-.1 0-.1.1-.2.1h-.3c-.1 0-.3 0-.4-.1-.1 0-.2-.1-.3-.2 0 0-.1-.1-.1-.2s-.1-.2-.1-.3c0-.1-.1-.2-.1-.2l-.1-.1h-.1l-.1.1c0-.1 0-.1-.1-.2.1 0 0-.1 0-.2m1.9-2c-.1 0-.2.1-.4.3-.1.2-.2.4-.2.5v.1h.1s.1 0 .1-.1l.1-.1.1-.1.1-.1c0-.1.1-.1.1-.2v-.2c.1 0 .1 0 0-.1z"/><path class="st1" d="M70.7 18.1s-.1.1-.1.2c-.1.1-.1.2-.2.3l-.3.3c-.1.1-.1.2-.2.3 0 .1-.1.2-.2.3-.1.1-.1.3-.2.5 0 0-.1.1-.3.2-.2.1-.3.2-.3.2-.1 0-.1 0-.1-.1v-1.6c0-.5 0-.8-.1-1.1 0-.2-.1-.4-.1-.4-.1 0-.2.1-.3.3-.1.2-.3.5-.5.9s-.4.7-.5 1c-.1.3-.2.4-.2.6 0 .2-.1.4-.2.5-.1.1-.2.2-.3.2h-.1v-.1c0-.2 0-.3.1-.5 0-.2.1-.3.2-.5 0-.1 0-.2.1-.4.1-.1.1-.3.2-.4 0-.1.1-.2.1-.3 0-.1.1-.2.3-.6.2-.3.3-.5.3-.6 0-.1 0-.2.1-.3.1-.1.2-.3.4-.5 0-.1.1-.1.1-.1l.1-.1c0-.1.1-.1.1-.1h.2c.2 0 .4.1.5.2.1.2.2.4.2.7v.2s0 .1.1.2v.9h.1l.2-.2.5-.5c0 .1.1.2.1.3.1-.1.1 0 .2.1m1.8.5c.1 0 .1 0 0 0 0-.1.1-.1.1-.1l.2-.2.3-.3c.1-.1.2-.2.3-.4.1-.1.2-.2.3-.4.1-.1.2-.2.3-.4.1-.1.2-.3.3-.4.2-.1.3-.1.4-.2h.2c.1 0 .1 0 .1.1v.4c0 .1-.1.2-.1.2 0 .1-.1.3-.1.4 0 .1-.1.3-.1.4 0 .2-.1.3-.1.5v.9c0 .1.1.2.1.1 0 0 .1-.1.2-.1s.1-.1.2-.1c.1-.1.2-.2.2-.3.1-.1.2-.2.3-.4.1-.1.1-.2.2-.3l.1-.1.1-.1c.1-.2.2-.3.3-.4.1-.1.2-.1.3-.1h.2c.1 0 .1.1.1.1v.8c0 .1 0 .3.1.3.1.1.1.1.2.1h.2l.2.6c-.2.1-.4.3-.6.3-.2.1-.3.1-.3.1-.2 0-.4-.1-.5-.2-.1-.1-.2-.3-.3-.5 0 0 0-.1-.1-.1l-.1-.1-.1.1c0 .1-.1.1-.1.2-.1.1-.2.3-.3.4-.1.1-.2.3-.3.4-.1.2-.3.3-.4.4-.1.1-.3.1-.4.1-.2 0-.3-.1-.4-.2-.1-.1-.2-.3-.2-.5s-.1-.4-.1-.5v-.5c0-.1 0-.1-.1-.1l-.3.4s0 .1-.1.1c0 0-.1.1-.1.2 0-.1 0-.1-.1-.2 0-.1-.1-.2-.2-.4m5.1-4.4v.1s0 .1-.1.1l-.1.1s-.1.1-.2.1c0 0-.1 0-.1.1 0 0-.1 0-.1.1 0 0-.1 0-.1.1l-.1.1s-.1 0-.1.1c0 0-.1 0-.1.1l-.1.1-.1.1h-.2l-.1.1s0 .1-.1.1c0 0-.1 0-.2.1 0 0-.1 0-.1-.1v-.4s0-.1.1-.1l.1-.1.1-.1c0-.1.1-.1.1-.1.1 0 .1-.1.1-.1l.1-.1c.1-.1.1-.1.2-.1s.1-.1.1-.1l.1-.1.1-.1c0-.1.1-.1.1-.2v-.2c0-.1.1-.1.1-.2.1 0 .1-.1.2-.1h.1l.1.1s0 .1.1.1v.1c0 .1 0 .1.1.2v.2z"/><path class="st2" d="M7.7 2.1l-.1-.4c0-.1.1-.2.1-.3 0-.1 0-.2.1-.3 0-.1.1-.1.1-.1h.7s.1 0 .2.1l.1.1.1-.1c0-.1 0-.2.1-.2l.2-.2c.1 0 .1-.1.2-.1s.1.1.2.1c0 0 .1 0 .1.1V1c0 .1-.1.2-.1.3 0 .1-.1.2-.1.3 0 .1 0 .2-.1.2-.2.1-.2.2-.3.2 0 .1-.1.2-.1.2 0 .1 0 .2.1.4s.2.4.3.7c.1.3.2.7.4 1 .1.4.3.8.4 1.2.1.4.3.7.4 1.1.2.4.3.7.4.9.1.2.2.3.2.3s.1 0 .1-.1v-.4c0-.1 0-.1.1-.2 0-.1.1-.2.1-.4s.1-.4.1-.6c0-.2.1-.3.1-.4 0-.1 0-.2.1-.5 0-.2 0-.6.1-1V2.4c.1-.3.1-.5.2-.8 0-.2.1-.4.1-.6 0-.1.1-.3.1-.3.1-.2.2-.3.2-.4.2-.1.3-.2.4-.3h.2v.1c0 .1 0 .2-.1.2v1.3c0 .2 0 .4-.1.7 0 .4-.1.8-.1 1.2 0 .4-.1.8-.1 1.2 0 .5-.1.9-.1 1.3-.1.4-.1.7-.2 1.1 0 .2-.1.4-.1.6-.1.2-.1.5-.2.8l-.2.3s-.1.1-.4.2c-.3.1-.4.1-.4.1-.1 0-.2-.1-.3-.3-.1-.2-.3-.4-.5-.8-.3-.2-.4-.4-.5-.6-.1-.2-.2-.4-.2-.5v-.1c0-.1 0-.1-.1-.2-.1-.2-.2-.5-.3-.7-.1-.3-.3-.7-.4-1 0-.1-.1-.2-.1-.3 0-.1-.1-.2-.2-.3 0 .1-.1.2-.1.3 0 .1-.1.3-.1.5 0 .1-.1.2-.1.3-.2.3-.2.5-.3.8-.1.3-.2.6-.3 1 0 .1-.1.2-.1.3 0 .1-.1.2-.1.4l-.1.2c0 .1 0 .3-.1.4 0 .1-.1.2-.1.4 0 .1-.1.3-.2.5 0 .1 0 .2-.1.2 0 0-.1.1-.2.1l-.1.1s-.1 0-.1.1c0 0-.1 0-.1-.1v-.5c0-.1.1-.3.1-.5s.1-.4.1-.5c0-.1 0-.2.1-.2 0-.1 0-.2.1-.4 0-.2 0-.4.1-.6v-.2c.1-.3.1-.4.1-.5 0-.1.1-.3.1-.7.1-.4.1-.9.3-1.6.1-.6.2-1.3.3-2m5.4 5.2c.1-.1.1-.2.2-.3l.3-.3v-.6c0-.1 0-.1.1-.2 0-.1.1-.2.1-.3 0-.1.1-.2.2-.4 0 .1.1-.1.2-.2l.3-.3c.1-.1.2-.2.3-.4 0 0 .1-.1.2-.1s.1-.1.2-.1h.7c.1 0 .1.1.2.1 0 0 .1.1.1.2s.1.2.1.3V5s0 .1-.1.2l-.2.1c0 .2-.2.4-.4.7-.2.3-.5.6-.8.9l-.1.1v.3c0 .1.1.1.1.2 0 0 .1.1.2.1s.2 0 .3.1c.2 0 .3 0 .5-.1.1 0 .3-.1.4-.2 0 0 .1 0 .1-.1l.1-.1c.1.1.1.2.1.3 0 .1.1.2.1.3-.2.2-.5.4-.7.5-.2.1-.4.2-.5.2-.1 0-.1.1-.2.1h-.3c-.2 0-.3 0-.4-.1-.1 0-.2-.1-.3-.2 0 0-.1-.1-.1-.2s-.1-.2-.1-.3c0-.1-.1-.2-.1-.2l-.1-.1h-.1l-.1.1c0-.1 0-.1-.1-.2-.3.2-.3.1-.4-.1m2.1-2c-.1 0-.2.1-.4.4-.2.2-.2.4-.2.5v.1h.1s.1 0 .1-.1l.1-.1.1-.1.1-.1c.1-.1.1-.1.1-.2v-.4z"/><path class="st2" d="M16.3 7.3s.1-.1.1-.2l.3-.3.3-.3c.1-.1.1-.2.2-.3.1-.1.1-.2.2-.4.1-.1.1-.3.2-.5 0 0 .1-.1.3-.2.1-.1.3-.1.3-.1.1 0 .1 0 .1.1v1.7c0 .5 0 .9.1 1.1 0 .3.1.4.2.4s.2-.1.3-.3c.1-.2.3-.5.5-1l.5-1c.1-.3.2-.5.2-.6 0-.2.1-.4.2-.5.1-.1.2-.2.4-.2h.1v.1c0 .2 0 .3-.1.5 0 .2-.1.4-.2.5 0 .1 0 .2-.1.4-.1.1-.1.3-.2.5 0 .1-.1.2-.1.3 0 .1-.1.3-.3.6-.2.3-.3.5-.4.6 0 .1 0 .2-.1.4-.1.1-.3.2-.5.4 0 .1-.1.1-.1.2s-.1.1-.1.2-.1.1-.2.1h-.2c-.2 0-.4-.1-.5-.3-.1-.2-.2-.4-.2-.8v-.2c0-.1 0-.1-.1-.2v-.9h-.1l-.2.2c-.1.1-.3.3-.5.6 0-.1-.1-.2-.1-.3-.1 0-.1-.2-.2-.3m4.3 0c.1-.1.1-.2.2-.3l.3-.3v-.6c0-.1 0-.1.1-.2 0-.1.1-.2.1-.3 0-.1.1-.2.2-.4.1-.1.2-.3.3-.5l.3-.3c.1-.1.2-.2.3-.4 0 0 .1-.1.2-.1s.1-.1.2-.1h.7c.1 0 .1.1.2.1 0 0 .1.1.1.2s.1.2.1.3v.3s0 .1-.1.2l-.1.2c-.1.2-.2.4-.4.7-.2.3-.5.6-.8.9l-.1.1v.3c0 .1.1.1.1.2 0 0 .1.1.2.1s.2 0 .3.1c.2 0 .3 0 .5-.1.1 0 .3-.1.4-.2 0 0 .1 0 .1-.1l.1-.1c.1.1.1.2.1.3-.2.5-.2.6-.2.6-.2.2-.5.4-.7.5-.2.1-.4.2-.5.2-.1 0-.1.1-.2.1h-.3c-.2 0-.3 0-.4-.1-.1 0-.2-.1-.3-.2 0 0-.1-.1-.1-.2s-.1-.2-.1-.3c0-.1-.1-.2-.1-.2l-.1-.1h-.1l-.1.1c0-.1 0-.1-.1-.2-.2.1-.3 0-.3-.2m2-2c-.1 0-.2.1-.4.4-.1.2-.2.3-.2.5v.1h.1s.1 0 .1-.1l.1-.1.1-.1.1-.1c.1-.1.1-.1.1-.2v-.2c.1-.2.1-.2 0-.2.1 0 0 0 0 0z"/><path class="st2" d="M23.8 7.3c.1-.1.1-.2.2-.3.3-.3.6-.5.8-.7.2-.2.3-.5.4-.7l-.1-.3.4-.4c.2-.1.4-.2.5-.2.1 0 .3 0 .4.1l.3.3.1.1c.2.1.3.3.4.5.1.2.1.5.1.8 0 .2-.1.4-.2.7-.1.4-.2.7-.2.8v.1h.1c.1 0 .1 0 .2-.1.1 0 .2-.1.2-.2.2-.2.4-.3.4-.4 0 0 .1-.1.2-.1 0 .1.1.2.1.3 0 .1.1.2.1.3l-.1.1-.2.2c-.1.1-.3.2-.6.4-.2.2-.5.3-.8.5-.1.1-.2.1-.3.1-.2 0-.3 0-.4-.1-.1-.1-.1-.1-.1-.3v-.2c0-.1 0-.1.1-.2 0-.1.1-.1.1-.2.1.1.1.1.1 0 .1-.3.2-.5.2-.8 0-.2.1-.4.1-.6 0-.2 0-.4-.1-.5-.1-.1-.2-.2-.3-.2-.1.1-.2.1-.3.2-.1.1-.2.2-.3.4-.2.1-.3.3-.4.4l-.2.2c0 .1-.1.1-.2.2l-.3.3v.1s0 .1-.1.1c0-.1-.1-.2-.1-.3-.1-.2-.2-.3-.2-.4m7.5 0l.1-.1c0-.1.1-.1.2-.2.1 0 .1-.1.2-.2s.2-.2.2-.3c0-.1.1-.2.1-.2 0-.1.1-.2.2-.3 0-.1.1-.2.2-.4.1-.1.2-.3.4-.5.2-.3.5-.5.7-.8.1-.2.3-.3.4-.4.2-.1.3-.1.5-.1.1 0 .2.1.3.2.1-.1.2.1.2.3 0 .1-.1.2-.2.4s-.3.4-.5.6c-.1.2-.3.3-.4.5-.1.2-.3.3-.4.5l-.2.2-.2.2c-.1 0-.1.1-.1.2v.4c0 .1.1.2.1.3 0 0 .1.1.1.2.1.1.2.2.3.4l.1.1.1.1c.1 0 .2-.1.4-.3.2-.2.4-.5.7-.9l.2.6c.1.2 0 .2 0 .3-.1.1-.2.2-.3.4-.1.2-.3.4-.4.6 0 0 0 .1.1.1 0 .1.1.1.2.2s.2.3.3.5c.1.2.1.5.2.8v.3c-.1.5-.4 1-.9 1.5-.6.5-1.1.7-1.6.7-.2 0-.4 0-.5-.1-.1-.1-.2-.1-.3-.3 0-.1 0-.2-.1-.3v-.8c0-.1.1-.2.1-.3 0-.1.1-.2.1-.3.1-.1.1-.2.2-.3.1-.1.1-.2.2-.3.1-.1.1-.2.2-.3l.4-.4c.1-.1.1-.2.2-.2 0-.1.1-.1.1-.2-.1-.2-.3-.4-.4-.6-.2-.2-.3-.4-.4-.6-.4 0-.4-.2-.5-.4 0 0 0-.1-.1-.1l-.3.3c0-.1 0-.1-.1-.2.1-.2 0-.3-.1-.5m2.1 2.7l-.2.2c-.1.1-.2.3-.4.5-.1.1-.2.3-.3.4-.1.1-.2.3-.3.4 0 0-.1.2-.1.3-.1.2-.1.3-.1.3 0 .1 0 .1.1.2 0 0 .1.1.2.1.3 0 .7-.2 1-.5.3-.4.5-.7.5-1v-.2c0-.1-.1-.2-.1-.3-.1-.1-.1-.2-.2-.3.1 0 0-.1-.1-.1z"/><path class="st2" d="M34.9 7.3c.1-.1.1-.2.2-.3.3-.3.6-.5.8-.7.2-.2.3-.5.4-.7l-.1-.3.4-.4c.2-.1.4-.2.5-.2.1 0 .3 0 .4.1l.3.3.1.1c.2.1.3.3.4.5.1.2.1.5.1.8 0 .2-.1.4-.2.7-.1.4-.2.7-.2.8v.1h.1c.1 0 .1 0 .2-.1.1 0 .2-.1.2-.2.2-.2.4-.3.4-.4 0 0 .1-.1.2-.1 0 .1.1.2.1.3 0 .1.1.2.1.3l-.1.1-.2.2c-.1.1-.3.2-.6.4-.2.2-.5.3-.8.5-.1.1-.2.1-.3.1-.2 0-.3 0-.4-.1-.1-.1-.1-.1-.1-.3v-.2c0-.1 0-.1.1-.2 0-.1.1-.1.1-.2s.1-.1.1-.2c.1-.3.2-.5.2-.8 0-.2.1-.4.1-.6 0-.2 0-.4-.1-.5-.1-.1-.2-.2-.3-.2-.1.1-.2.1-.3.2-.1.1-.2.2-.3.4-.2.3-.3.5-.4.6l-.2.2c0 .1-.1.1-.2.2l-.3.3v.1s0 .1-.1.1c0-.1-.1-.2-.1-.3-.1-.2-.2-.3-.2-.4m4.2 0l.1-.1s.1-.1.1-.2l.5-.3.3-.3c.1-.1.3-.3.5-.4 0 0 .1-.1.1-.2s.1-.1.2-.2c0 0 .1 0 .1-.1.1 0 .1-.1.2-.1l.2-.2.2-.2c.1-.1.1-.1.2-.1s.2-.1.2-.1h.2l.1.1c0 .1-.1.2-.1.3v.1c.2-.1.3-.1.4-.2.1 0 .2-.1.2-.1.3 0 .5.1.7.3.2.2.2.5.2.9v.3c0 .1 0 .2-.1.3 0 .1-.1.2-.1.3 0 .1-.1.1-.1.2s0 .1.1.1h.2l.1-.1c0 .1.1.2.1.3 0 .1.1.2.1.3 0 .1-.1.2-.2.2l-.2.2c-.1.1-.2.1-.3.2-.1 0-.2.1-.3.1-.1 0-.2 0-.2-.1-.1 0-.1-.1-.2-.2-.1.1-.2.3-.4.4-.1.1-.2.2-.4.3-.1 0-.2 0-.3.1H41c-.2 0-.5-.1-.7-.3-.2-.1-.3-.4-.3-.6 0-.1 0-.2.1-.4 0-.2.1-.3.1-.3v-.1h-.1s-.1 0-.2.1l-.3.3v.1s0 .1-.1.1c0-.1-.1-.2-.1-.3-.2-.2-.2-.3-.3-.4m3.1-1.1l-.2.2c-.1.1-.1.2-.2.3 0 .1-.1.1-.2.1s-.1 0-.2.1c0 0-.1 0-.1.1s-.1.2-.1.3c0 .1-.1.2-.1.3v.2c0 .1 0 .2.1.3.1.1.2.1.3.1.2 0 .4-.1.5-.2.2-.1.3-.3.5-.5.1-.1.1-.2.2-.2l.1-.1c0-.1 0-.1.1-.2l.1-.4c0-.1-.1-.2-.1-.3 0-.1-.1-.1-.1-.1h-.6z"/><path class="st2" d="M43.8 7.3s.1 0 .1-.1c.1 0 .2-.1.3-.2.1 0 .1-.1.2-.2s.2-.2.3-.4c.1-.1.2-.3.3-.4.1-.1.1-.2.2-.3.2-.3.3-.6.5-.7.2-.2.3-.2.5-.2h.1v2.8l.1.1c.1 0 .4-.5.8-1.4.4-1 .8-1.4 1.1-1.4.1 0 .2 0 .2.1s.1.2.1.3v.1l-.1.1v.2c0 .2-.1.3-.1.5v.5c0 .2 0 .5-.1 1v.2c0 .1.1.1.1.2.1 0 .2-.1.4-.4.2-.3.4-.7.6-1.2 0-.1 0-.2.1-.3 0-.1.1-.2.1-.3 0-.1.1-.2.1-.3 0-.1.1-.2.1-.3l-.1-.2c0-.1 0-.2.1-.2 0-.1 0-.2.1-.2 0-.1.1-.2.1-.2.1-.4.2-.5.3-.5.1 0 .1 0 .2.1 0 0 .1.1.1.2 0 .2 0 .4-.1.7 0 .2-.1.5-.2.7-.1.3-.2.6-.3.8-.1.2-.2.5-.4.7-.1.3-.3.6-.5.9-.1.2-.3.4-.3.5-.1.1-.1.2-.2.2-.1.1-.2.2-.4.3-.1.1-.2.1-.4.1s-.3-.1-.4-.4c-.1-.2-.1-.6-.1-1.1v-.5s-.1 0-.1.1-.1.2-.2.3c0 .3 0 .4-.1.6v.1c0 .1 0 .1-.1.2l-.2.4c0 .1-.1.2-.1.2 0 .1-.1.2-.1.2-.1.1-.1.1-.2.1h-.4l-.1-.1s-.1-.3-.2-.7c-.1-.4-.2-1-.3-1.8l-.1.1c-.1.1-.1.1-.1.2 0 0-.1.1-.1.2l-.2.2c-.1.1-.1.1-.3.2-.1.1-.2.2-.3.2 0-.1-.1-.2-.1-.3-.1 0-.2-.1-.2-.3m9.8 0l.1-.1c.1-.1.2-.1.2-.2.1-.1.2-.2.3-.4.1-.1.2-.3.3-.4.1-.1.2-.3.3-.4.1-.1.2-.3.3-.4.1-.1.2-.3.3-.4.2-.1.3-.1.4-.2.1 0 .2-.1.2-.1.1 0 .1 0 .1.1 0 0 .1.1.1.2v.3c0 .1-.1.2-.1.3 0 .1-.1.3-.1.4 0 .1-.1.3-.1.4 0 .2-.1.4-.1.5v.9c0 .1.1.2.1.2s.1-.1.2-.1c-.1.1-.1 0 0 0l.3-.3c.1-.1.2-.3.3-.4.1-.2.2-.3.3-.4l.1-.1.1-.1c.1-.2.2-.4.3-.5.1-.1.2-.2.3-.2h.3c.1 0 .1.1.1.1v.9c0 .2 0 .3.1.4.1.1.1.1.3.1h.2l.3.6c-.3.2-.5.3-.6.3-.2.1-.3.1-.4.1-.2 0-.4-.1-.5-.2-.1-.1-.2-.3-.3-.5 0-.1 0-.1-.1-.2 0-.1-.1-.1-.1-.2 0 0-.1.1-.1.2s-.1.1-.2.2-.2.3-.3.4c-.1.1-.2.3-.4.4-.1.3-.2.4-.4.5-.2.1-.3.1-.4.1-.2 0-.4-.1-.5-.2-.1-.1-.2-.3-.2-.5s-.1-.4-.1-.5v-.5c0-.1 0-.1-.1-.1l-.4.4s0 .1-.1.1c0 0-.1.1-.1.2 0-.1 0-.1-.1-.2 0-.2-.1-.3-.1-.5"/><path class="st2" d="M58.9 7.3c.1-.1.2-.2.3-.4.1-.2.3-.3.5-.5 0 0 0-.1.1-.1 0-.1.1-.1.1-.2.2-.3.4-.7.6-1 .2-.3.3-.6.5-.9 0-.1 0-.2.1-.3 0-.1.1-.2.2-.4.1-.1.1-.2.2-.2.1-.1.1-.1.2-.1s.1 0 .2.1c0 .1.1.2.1.3 0 .1-.1.4-.2.8-.1.5-.4 1.1-.7 2-.1.2-.2.5-.3.9-.1.4-.2.8-.3 1.4V9c0 .1 0 .2-.1.4-.1.3-.1.5-.2.7v.4s0-.1.1-.1c0-.1.1-.2.1-.3 0-.1 0-.2.1-.3v-.2c.1-.2.2-.6.3-1 .1-.4.3-.8.4-1.4.1-.1.1-.3.2-.5l.3-.6c.1-.1.2-.2.3-.2.1 0 .1-.1.2-.1s.2 0 .3.1l.3.3s.1.1.1.2c.1.1.1.3.2.5.1.1.1.2.2.3.1.1.1.1.2.1l.3.6h-.2c-.1 0-.2.1-.4.1l-.4-.2c-.1 0-.2-.1-.4-.3-.2-.2-.3-.3-.4-.3-.1.1-.2.2-.3.4-.1.2-.2.4-.3.7 0 .1-.1.1-.1.2s-.1.2-.1.3c-.2.2-.2.4-.2.5-.1.1-.1.3-.2.5s-.1.4-.2.7c0 .1-.1.2-.2.4s-.1.3-.2.4c0 .1 0 .1-.1.2 0 .1-.1.2-.1.3-.1.2-.2.3-.3.4-.1.1-.1.1-.2.1s-.2-.1-.3-.2c-.1-.1-.1-.3-.1-.6 0-.4 0-.8.1-1.2 0-.4.1-.9.2-1.4 0-.1.1-.3.1-.4 0-.1.1-.3.1-.5s.1-.3.1-.5v-.4l-.2.2-.4.4c0-.1 0-.1-.1-.2 0 .1 0 0-.1-.2"/><path class="st3" d="M90.1 46.4c-1.3 0-2.5-.8-3-2.1-.2-.5-.3-1.1-.3-1.8 0-.4 0-.8.1-1.4.1-.4.2-1 .3-1.7.2-.7.3-1.3.4-1.7.1-.3.1-.6.2-.7 0-.3.1-.7.2-1.1.1-.5.1-1.1.2-1.8 0-.3.1-.6.2-1 .1-.3.2-.6.3-1 0 0 .1-.4.4-2 .2-1.2.5-2.9.8-5 .3-2 .6-3.9.9-5.9l-.2-.8v-1.5l.2-.8c.1-.2.1-.5.2-.7l.1-.4c.4-.8 1-1.5 1.8-1.9.6-.3 1.3-.5 2-.5h.1c.5-.1.8-.1 1.2-.1h.2l.3-.3c.5-.4 1-.7 1.6-.9l2.1.2c.2.1.3.1.4.2l.3.2c.6.3 1.1.8 1.4 1.4.2.5.4 1 .4 1.6 0 .4-.1.8-.2 1.3-.1.3-.2.6-.4 1.1-.1.4-.2.7-.3.9 0 .1-.1.2-.1.3l-.4 1.1c0 .1-.1.1-.1.2v.2c.1.5.4 1.1.6 1.8.4 1.1.9 2.3 1.4 3.5l.1.2.9 2.7c.1-.7.1-1.6.2-2.6 0-.3 0-.6.1-1 0-.2.1-.4.1-.7v-.1c0-.3.1-.5.1-.7v-.3c0-.1 0-.4-.1-1.1-.1-.7-.1-1.3-.1-1.7l.1-.7c.2-.8.4-1.7.6-2.5.2-.8.3-1.4.5-2 .2-.6.3-1 .4-1.3l.1-.1c.3-.8.8-1.4 1.3-2 .5-.6 1.1-1.1 1.7-1.5l1.5-.4h.2c1.3 0 2.1.7 2.5 1.1.4.4.8 1.1.8 2.2l-.1.7v1.2c-.1.4-.1.8-.2 1.1v1.3c0 .2 0 .6-.1 1.3 0 .6-.1 1.3-.2 2.2l-.3 3.9c-.1 1.3-.2 2.6-.4 3.9-.1 1.6-.3 3.1-.5 4.4-.2 1.3-.5 2.5-.8 3.5-.1.7-.2 1.4-.4 2.2-.2.8-.5 1.7-.8 2.6l-.3.6-.6 1-.1.2c-.6.8-1.3 1-2.7 1.5-1.3.5-1.8.6-2.4.6-1.8 0-2.8-1.4-3.3-2-.5-.7-1.1-1.6-1.7-2.9-.5-1-1-1.9-1.3-2.5-.4-.9-.7-1.5-.8-2 0-.2-.1-.3-.1-.4l-.1-.4v-.1l-.5 1.8c-.1.3-.1.7-.2 1-.1.4-.2.9-.3 1.3l-.3.6-.1.2c0 .3-.1.5-.1.8l-.1.4c-.1.3-.2.7-.4 1.2-.1.4-.3.9-.5 1.4-.2 1-.7 1.7-1.1 2.1-.4.4-.9.7-1.4.9-.3.2-.7.4-1.1.5l-.2.1-.8-.6z"/><path class="st2" d="M111.1 14.8c.1-.2.1-.5.1-.9 0-.3-.1-.5-.1-.8.1-.2.1-.4.2-.7 0-.1 0-.2-.1-.3s-.1-.1-.3-.1h-.2c-.4.2-.7.5-1.1.9-.3.4-.6.8-.8 1.3-.1.2-.2.6-.4 1.1-.1.5-.3 1.1-.4 1.8-.2.8-.4 1.7-.6 2.5 0 .3 0 .8.1 1.4.1.6.1 1.1.1 1.4v.6c0 .2-.1.5-.1.8 0 .3-.1.6-.1.8 0 .2-.1.4-.1.6-.1 1.4-.1 2.4-.2 3.2-.1.8-.1 1.3-.2 1.6-.1.4-.2.8-.3 1.4-.1.5-.2 1.2-.4 1.9-.1.5-.2.9-.3 1.3-.1.3-.1.5-.2.7 0 .2-.1.4-.1.5 0 .3 0 .6-.1.8-.1.2-.2.2-.3.2-.2 0-.4-.3-.7-.9-.3-.6-.7-1.5-1.3-2.6-.5-1.1-1-2.3-1.4-3.5-.5-1.2-.9-2.5-1.3-3.8-.5-1.2-.9-2.3-1.3-3.4-.3-.8-.6-1.5-.7-2-.2-.5-.2-1-.2-1.2 0-.2.1-.5.2-.7.1-.3.3-.5.5-.9 0-.2.1-.4.2-.6.1-.3.2-.6.4-1 .1-.4.2-.7.3-.9.1-.2.1-.4.1-.4 0-.1 0-.2-.1-.3 0-.1-.1-.1-.2-.2l-.6-.3c-.2.1-.4.2-.5.3-.2.1-.3.3-.5.5-.2.3-.4.5-.5.7-.1.2-.3.3-.4.4-.1 0-.2-.1-.4-.3-.2-.2-.4-.3-.5-.3-.1 0-.3 0-.5.1-.3.1-.4.1-.6.1-.3 0-.6.1-.8.2-.2.1-.3.3-.4.4-.1.3-.1.6-.2.8-.1.3-.2.6-.2.8l.3 1.3c-.3 2.2-.7 4.3-1 6.4-.3 2.2-.6 3.9-.8 5.1-.2 1.2-.3 2-.4 2.2-.1.4-.2.7-.2.9-.1.3-.1.5-.1.7-.1.7-.2 1.3-.2 1.9-.1.5-.1 1-.2 1.3 0 .1-.1.4-.2.8s-.2 1-.4 1.7c-.1.6-.2 1.2-.3 1.6-.1.4-.1.7-.1.9 0 .3 0 .6.1.8.1.2.2.2.3.2.2-.1.3-.1.4-.2l.2-.2c.3 0 .5-.1.6-.3.2-.2.3-.4.3-.7.2-.6.4-1.2.5-1.6.1-.4.3-.8.4-1.1.1-.4.1-.8.2-1.2l.4-.7.3-1.2c.1-.4.2-.8.2-1.1.3-1.1.6-2.1.8-3 .3-.9.5-1.8.7-2.6.2-.3.3-.6.4-1 .1-.6.2-1.1.3-1.5.1-.4.2-.8.3-1l.1-.1c.2.3.4.6.5.9.1.3.3.6.4.9.6 1.2 1 2.3 1.5 3.2.4.9.8 1.6 1 2.3.1.2.1.5.2.7.1.2.1.4.1.5.1.3.3.8.6 1.5s.7 1.5 1.3 2.5c.6 1.1 1.1 1.9 1.5 2.5.4.5.7.8.9.8.1 0 .6-.1 1.4-.4.8-.3 1.3-.5 1.3-.5l.6-1c.3-.9.5-1.7.7-2.4.2-.7.3-1.4.4-2 .3-1 .5-2.1.7-3.4.2-1.3.4-2.7.5-4.2.1-1.3.2-2.6.4-3.8l.3-3.9c.1-.9.2-1.6.2-2.2 0-.5.1-.9.1-1.1v-2.2"/><path class="st3" d="M211.8 45.5c-1.8 0-3-.7-3.6-1.3-.4-.4-.8-.9-1-1.6-.7 0-1.5-.2-2.1-.5-.7-.3-1.2-.8-1.7-1.4-.3-.3-.5-.6-.7-1.1-.1-.1-.1-.2-.2-.4-.2.2-.5.3-.7.5-.3.4-.6.8-1 1.3-.5.5-1.1 1.2-1.8 2l-.6.6c-.2.2-.4.4-.6.5l-.1.1c-.5.4-1.1.7-1.7.9-.5.1-1 .2-1.5.2-2.4 0-3.6-1.6-3.8-3.1 0-.1 0-.3-.1-.4-.6.5-1.3.8-1.9 1.1-.7.3-1.5.5-2.3.5-2.2 0-3.5-.9-4.2-1.7 0-.1-.1-.1-.1-.2l-.8.8-.2.2c-.4.3-.8.6-1.3.9-.4.3-.9.5-1.4.8-.4.2-.7.4-1 .5-.4.2-.9.4-1.6.4-1.8 0-2.9-.7-3.6-1.4-.1-.1-.2-.2-.3-.4-.6.2-1.2.3-1.9.3-.3 0-.8 0-1.3-.1-.3 0-.6-.1-.7-.1-1.6 0-3.1-.7-4.2-2-.1-.1-.2-.2-.2-.3-.5.3-1 .7-1.6 1.1-.8.5-1.7 1.1-2.8 1.7-.4.3-1 .5-1.6.7l-.9.1c-1.1 0-2-.2-2.8-.7-1.2-.7-1.9-1.9-1.9-3.3 0-.5.1-.9.2-1.4l.3-.9c-.2.2-.4.3-.6.5-.1.2-.3.4-.4.6l-.1.1c-1 .9-1.8 1.6-2.7 2.2-.8.5-1.7.8-2.5 1l-.9.3c-.5.1-1 .2-1.6.2-.9 0-1.7-.1-2.4-.4-.8-.3-1.5-.8-2-1.4-.3-.3-.6-.8-.9-1.3-.2-.3-.4-.7-.5-1.2 0-.1 0-.1-.1-.1 0 .1.1.1.1.1.4.6-1.7-.6-1.7-.6 0-.1-.1-.2-.1-.3-.1-.3-.3-.6-.5-1.1l.1-2.7c.3-.5.6-.9 1-1.4.1-.2.3-.3.4-.5v-.3l.1-.5c.1-.3.2-.6.3-1l.3-.9v-.1c.1-.3.3-.8.6-1.3.3-.6.6-1.1 1-1.8l.3-.4c.3-.3.5-.6.8-.9.3-.4.6-.7.9-1.1l.4-.4c.2-.2.5-.4.8-.6.1-.1.2-.1.3-.2l.9-.5c.3-.1.6-.2.9-.2.4-.1.8-.1 1.2-.1.7 0 1.2.1 1.7.2.7.2 1.4.7 1.9 1.3.3.3.5.7.7 1.3.1.3.3.7.4 1.2l.1.3c0 .2.1.5.1.8.4-.5 1-.9 1.7-1.4 1.2-.8 2.3-1.2 3.3-1.2 1.2 0 2.2.4 3.1 1.1.3.3.6.5.9.8.1.1.2.2.3.2.8.6 1.5 1.4 1.9 2.5v-.5c.2-1 .5-2.1.8-3.3.3-1.1.7-2.3 1.1-3.6l.3-.7c.1-.1.2-.3.2-.5l.5-1c.3-.8.6-1.6 1-2.5.4-.8.9-1.7 1.4-2.6.8-1.3 1.4-2.3 2.1-3 1.1-1.2 2.3-1.8 3.5-1.8 1.6 0 2.9.5 3.8 1.4.8.9 1.3 2.1 1.3 3.8 0 .4 0 .9-.2 1.5 0 .3-.1.4-.1.6 0 .6-.1 1.2-.4 2l-.1.2v.4c0 .2-.1.4-.1.6v.5c-.1.3-.2.6-.3 1-.1.3-.2.6-.4.9-.1.3-.2.7-.3 1.1-.2.5-.4 1-.6 1.6l-.2.5c-.1.2-.2.4-.4.6-.1.1-.1.2-.2.3-.1.2-.1.3-.2.5-.1.3-.3.7-.5 1.1-.1.3-.3.6-.5.9-.1.2-.3.4-.4.6l-.4.9-.2.3c-.2.3-.4.6-.7 1-.2.3-.5.7-.7 1.1-.3.5-.5.9-.8 1.4 0 .1 0 .2.1.3.2-.1.5-.2.9-.3 0 0 .4-.4.6-.5l.4-.6.8-.8 1.5-1c.3-.5.6-.9 1.1-1.3.2-.1.3-.2.5-.3l.3-.3c.2-.2.6-.5.9-.9l.5-.4c.1-.1.2-.1.3-.2 0 0 .2-.1.4-.3 1.4-1.3 2.6-2.3 3.7-3 1.4-.9 2.7-1.3 3.9-1.3 1.4 0 2.2.5 2.7 1 .8.7 1.3 1.7 1.3 2.8 0 .7-.1 1.4-.4 2-.3.6-.6 1.1-1.1 1.5.1.1.1.2.2.3.2.3.4.7.5 1.1l.1-.1c.2-.3 2.1-2.4 2.1-2.4.3-.3.5-.6.9-.9.3-.4.7-.8 1.2-1.3.6-.7 1.3-1.3 2.1-1.7.8-.4 1.8-.6 2.7-.6 1.4 0 2.6.6 3.4 1.6.5.6.8 1.4.9 2.3.1 0 .1 0 .2-.1.6-.2 1.2-.3 1.8-.3 1 0 1.9.3 2.7.8.8.5 1.4 1.2 1.9 2.1l.2.4c.1-.1.3-.2.5-.2.2-.1.3-.2.5-.2.1-.1.1-.2.2-.2.3-.3.6-.6.9-1 .2-.3.5-.5.8-.7l.1-.1.9-.9c.3-.3.6-.6.8-.9l.1-.1c.2-.2.5-.4 1-.8.4-.3.9-.8 1.5-1.3l.2-.2c.2-.1.4-.3.9-.5.1 0 .2-.1.3-.1l.1-.4c0-.1.1-.1.1-.2.1-.2.1-.4.2-.6v-.1c.1-.4.2-.7.3-.9.1-.4.2-.7.3-.9.2-.6.6-1.4 1-2.3.4-.9.9-1.8 1.5-2.9.3-.5.6-1.2 1-1.9l.2-.3c.5-.7 1-1.2 1.7-1.6.8-.4 1.6-.7 2.4-.7 1.3 0 2.4.6 3 1.7.4.7.6 1.5.6 2.4 0 .7-.1 1.5-.2 2.1-.1.7-.3 1.4-.6 2v.4c0 .6-.2 1.1-.4 1.6-.1.1-.1.2-.2.3v.1l-.3.7c0 .6-.2 1.1-.4 1.5-.1.2-.3.6-.5 1.1 0 0-.6 1.4-.7 1.4.1-.2.1-.3.1-.4l-.5 1.1v.4l-1.2 4.4V34s0 .1.2.4c.1.1.2.3.3.5l3.2.5.5 1c.2.4.3.8.5 1.1l-1.2 3.5c.2-.1.3-.2.4-.3l-.2.2c-.2.2-.5.5-.8.9-.5.7-1.2 1.1-2 1.4-.7.2-1.4.4-2.2.4-1.7 0-3.2-.5-4.4-1.5l-.9-.9-.6.6c-.5.5-.9 1.1-1.4 1.6-.8.9-1.6 1.6-2.3 2-1.2-.2-2.2.1-3.1.1"/><path class="st2" d="M226.8 35.7c-.3.3-.5.5-.8.7-.3.1-.5.2-.8.2-.2 0-.5-.1-.7-.2-.2-.1-.4-.3-.5-.6-.2-.4-.5-.7-.6-1.1-.2-.3-.3-.6-.3-.9-.1-.2-.1-.5-.1-.9v-1.3l1.3-4.7-.1-.5c.1-.2.2-.4.3-.5.1-.2.2-.3.2-.3 0-.1.1-.2.2-.5s.3-.6.5-1.1c.2-.4.3-.8.4-1 .1-.2.1-.4.1-.5v-.7l.3-.4c0-.2.1-.3.1-.5v-.3c.1-.2.2-.3.3-.5.1-.2.1-.4.2-.6 0-.3.1-.5.1-.7 0-.2.1-.3.1-.4.2-.5.4-1 .5-1.5.1-.5.1-1.1.1-1.7 0-.4-.1-.7-.2-.8-.1-.2-.3-.3-.5-.3-.3 0-.6.1-.9.3-.3.2-.6.4-.8.8-.4.7-.7 1.3-1 1.9-.6 1.1-1 2-1.4 2.9-.4.8-.7 1.6-.9 2.2 0 .1-.1.3-.2.5-.1.3-.2.6-.3 1l-.3.9c-.1.3-.2.5-.3.6 0 .3 0 .5-.1.7-.1.2-.2.3-.4.4-.4.2-.7.3-1 .5-.2.1-.4.2-.5.3-.7.6-1.2 1-1.6 1.4-.4.3-.6.5-.8.7-.3.3-.6.7-.9 1l-1 1-.4.4-.3.3c-.3.4-.6.7-.9 1-.2.3-.4.5-.5.7l-.3.2c-.4.2-.7.3-.9.4-.2.1-.4.2-.5.3l-.4.4c-.2.2-.4.4-.6.7l-.1.2-.1.1c-.1.1-.2.2-.4.3-.1.1-.3.1-.5.1s-.4-.1-.6-.3c-.2-.2-.4-.5-.5-.9-.2-.7-.5-1.5-.8-2.4-.2-.4-.5-.8-.8-1-.3-.2-.7-.3-1.1-.3-.2 0-.5.1-.8.2-.3.1-.6.3-1 .5l-.9.6c-.2.2-.5.4-.6.6-.1.1-.2.3-.3.4-.1.1-.2.2-.2.3-.2.2-.5.4-.7.6-.2.2-.4.5-.5.7-.3.3-.6.5-.8.8-.2.2-.4.4-.5.6l-.2.2-.2.2c-.1-.1-.1-.2-.1-.3v-.3c0-.1.1-.3.2-.5s.2-.5.4-.8c.5-1.5.9-2.7 1.1-3.6.2-.9.4-1.5.4-1.8 0-.6-.1-1-.4-1.4-.2-.3-.6-.5-1.1-.5-.5 0-1 .1-1.4.3-.4.2-.9.6-1.2 1-.5.5-.8.9-1.2 1.3-.3.4-.6.7-.8.9-.5.6-.9 1.1-1.3 1.5-.4.4-.7.7-.9 1l-.7.7-.5.5c-.1.2-.2.3-.3.4-.1.1-.2.2-.2.3-.1.1-.2.2-.3.2-.1.1-.2.1-.2.1l-.3.3c-.1.1-.2.2-.3.4-.1.1-.2.2-.4.3-.1.1-.2.1-.4.1-.4 0-.7-.2-1-.5-.3-.4-.4-.7-.4-1.2v-2c0-.5-.1-.8-.3-1-.2-.2-.4-.3-.7-.3-.5 0-1 .2-1.5.5-.5.4-1.1.9-1.8 1.7-.1.1-.2.2-.3.2-.1.1-.2.1-.3.2-.1.1-.3.3-.6.5-.3.3-.7.6-1.1 1-.4.4-.8.7-1.1.9-.3.2-.6.4-.9.5l-.1-.2c.4-.6.7-1 1-1.4.2-.3.4-.6.5-.7.8-.7 1.4-1.3 1.8-1.7.5-.5.8-.9.9-1.2.3-.2.6-.4.8-.6l.4-.4c.1-.1.2-.3.4-.5.4-.3.8-.6 1.1-1 .3-.3.6-.6.8-.9.4-.3.8-.6 1.1-.8.2-.2.4-.3.5-.6.1-.2.2-.5.2-.8 0-.3-.1-.5-.3-.6-.2-.2-.4-.2-.8-.2-.6 0-1.4.3-2.4.9-.9.6-2 1.5-3.3 2.7-.3.3-.5.5-.8.6-.2.2-.4.3-.6.4-.3.3-.6.5-.8.7l-.5.5c-.2.1-.4.2-.5.3-.2.1-.3.3-.4.5-.1.2-.2.4-.3.5-.1.1-.2.2-.2.3l-1.9 1.2-.6.9c-.3.3-.6.5-.8.7-.2.2-.5.4-.6.5-.6.2-1.1.4-1.4.5-.3.1-.6.1-.6.1-1.1 0-1.9-.3-2.4-1s-.8-1.7-.8-3c.5-.7.9-1.4 1.3-2.2.3-.5.6-.9.8-1.2l.6-.9c.1-.3.2-.5.3-.7.1-.2.2-.4.3-.5.2-.3.4-.6.5-.7.1-.2.2-.4.3-.5.2-.3.3-.6.4-.8.1-.2.2-.4.2-.6.2-.2.3-.5.4-.7.1-.2.2-.4.3-.5.2-.5.4-1 .5-1.5.2-.5.3-.9.4-1.2.2-.4.3-.7.4-1 .1-.3.2-.5.2-.7v-.3c.1-.1.1-.2.1-.3 0-.4.1-.7.2-1.2.2-.4.2-.8.2-1 0-.2 0-.6.1-1 .1-.5.1-.8.1-1 0-.9-.1-1.4-.4-1.7-.3-.3-.8-.5-1.6-.5-.4 0-.9.3-1.4.8-.5.6-1.1 1.4-1.7 2.5-.5.8-.9 1.6-1.3 2.4-.4.8-.7 1.5-.9 2.3-.2.4-.4.8-.5 1.1-.2.3-.3.6-.4.8-.4 1.3-.8 2.5-1.1 3.6-.3 1.1-.6 2.1-.8 3l.1.4c-.1.2-.2.6-.3 1.3-.1.7-.2 1.3-.2 1.6 0 .1 0 .3.1.4v.3c0 .1 0 .1-.1.2l-1.4 1.2c-.2.2-.4.5-.5.7-.1.2-.2.4-.4.5-.2.2-.4.3-.5.4-.2.1-.6.5-1.3 1.2-.3.3-.6.5-.8.7-.2.2-.5.2-.6.2-.1 0-.1 0-.2-.1 0 0-.1-.1-.1-.2 0-.5.2-1.3.6-2.3.4-1 .6-1.8.6-2.4 0-1-.1-1.9-.4-2.7-.3-.7-.7-1.3-1.2-1.7-.1-.1-.2-.1-.3-.2l-.9-.9c-.3-.3-.7-.4-1.2-.4-.4 0-1 .2-1.7.7-.7.5-1.2.9-1.3 1.2l.2 1c-.3.7-.8 1.4-1.4 2.1-.6.8-1.5 1.6-2.5 2.4-.2.3-.4.6-.7.9-.1.1-.3.2-.4.3-.2.1-.3.1-.3.2-.3.2-.7.4-1.2.5-.4.1-.9.2-1.5.3-.3-.1-.6-.1-.9-.2-.2-.1-.4-.2-.5-.2-.2-.1-.3-.3-.4-.5-.1-.2-.2-.5-.2-.8 0-.2 0-.3.1-.5.1-.1.2-.3.2-.4 1.1-1.1 2.1-2.1 2.7-3 .7-.9 1.1-1.6 1.3-2.3l.2-.7c.1-.3.2-.6.2-.7 0-.2.1-.2.1-.1-.1-.3-.1-.6-.1-.9-.1-.3-.2-.6-.3-.8-.1-.2-.2-.4-.3-.5-.1-.2-.3-.3-.5-.4-.2-.1-.5-.1-.8-.1-.2 0-.5 0-.7.1-.2 0-.4.1-.6.1-.2.1-.4.3-.5.4-.2.1-.3.2-.5.4-.3.4-.6.8-.9 1.1-.3.4-.6.7-.9 1-.3.6-.6 1.1-.8 1.5-.2.5-.4.8-.5 1.1-.1.3-.2.6-.3.8-.1.3-.2.5-.2.7 0 .3 0 .5-.1.8 0 .3-.1.5-.1.8-.4.3-.7.6-1 .9-.3.3-.5.6-.6.9.2.5.4.8.5 1.1.1.3.2.6.3.8.2-.2.3-.4.5-.5.1-.1.3-.2.4-.2.1 0 .3.1.4.2.1.1.2.4.4.7.2.4.3.7.4 1 .1.3.3.5.4.6.3.3.6.5 1 .7.4.2.8.2 1.4.2.4 0 .7 0 1-.1.3-.1.5-.2.8-.3.5 0 1.1-.2 1.8-.6.6-.4 1.4-1 2.1-1.7.1-.1.2-.3.3-.4.1-.1.1-.2.1-.2.5-.3.8-.6 1.1-.8.3-.3.5-.5.6-.7.2-.1.5-.3.8-.6.3-.3.7-.7 1.1-1.2.4-.5.7-.8 1.1-1.1.4-.3.7-.5 1-.7.5.1.8.3 1 .7.2.4.3.9.3 1.7 0 .6-.1 1.3-.2 2-.2.7-.4 1.5-.7 2.4-.1.2-.2.4-.2.6-.1.2-.2.4-.3.5-.1.2-.2.5-.3.7-.1.2-.1.4-.1.5 0 .4.1.7.4.8.3.2.7.3 1.3.3.4-.1.7-.3.9-.4 1-.6 1.9-1.2 2.7-1.7.7-.5 1.4-.9 1.8-1.2.2-.2.4-.4.6-.5l.4-.4c.3-.3.6-.6.9-.8l.6-.6.3.3c0 .1.1.2.1.3.2 1.2.6 2.2 1.1 2.8.5.6 1.1.9 1.9.9.2 0 .6 0 1 .1.5 0 .8.1 1 .1.4 0 .9-.1 1.3-.3.4-.2.9-.5 1.3-.8.4-.3.7-.6 1.1-1 .4-.3.7-.7 1.1-1v.4c-.3.3-.6.6-.7 1-.2.3-.2.7-.2 1.1 0 .7.2 1.2.5 1.5.3.3.8.5 1.5.5.1 0 .2 0 .5-.1.2-.1.5-.2.7-.4.5-.2.9-.5 1.2-.7.4-.2.7-.5 1-.7l.7-.7 1.2-1.2c.4-.3.7-.5.9-.7.3-.2.5-.4.7-.5l.3-.3c.1-.1.2-.1.2-.2.1.1.2.3.2.4 0 .1.1.3.1.4.1 1 .4 1.8.8 2.3.5.5 1.2.8 2.1.8.4 0 .8-.1 1.2-.2.4-.2.8-.4 1.2-.7.3-.3.7-.6 1-.9.3-.3 1.2-1.2 1.2-1.3.1-.1.1-.2.1-.2l.6-.6c.2-.2.3-.3.5-.4.1 0 .2-.2.5-.4.2-.2.5-.6.9-1 .3-.4.6-.6.8-.8.2-.2.4-.2.5-.2.2 0 .3 0 .3.1.1.1.1.1.1.2v.3c0 .1-.1.3-.1.5-.1.2-.1.3-.2.5 0 .1-.1.2-.1.3-.3 1.2-.6 2.2-.9 3-.3.9-.5 1.6-.7 2.2 0 .4.1.8.1 1.1 0 .4.3.6.9.6.3 0 .5 0 .8-.1l.6-.3c.2-.2.4-.3.5-.5.2-.2.4-.3.5-.5.7-.7 1.3-1.3 1.8-1.9.5-.5.8-.9 1-1.3.1-.2.3-.3.6-.5.3-.1.7-.5 1.3-1 .3-.3.6-.5.8-.6.3-.2.5-.3.8-.4l.2.1c.3.4.6.7.8 1 .2.3.4.5.6.7.2.4.4.8.6 1.1.2.3.3.5.4.6.2.3.5.5.7.6.3.1.6.2.9.2.3 0 .5-.1.8-.2.3-.1.6-.3.9-.6.2-.2.5-.4.7-.6.2-.2.5-.4.7-.6l.1.3c0 .3-.1.7-.4 1.3-.2.6-.4 1-.4 1.3 0 .7.2 1.2.5 1.5.3.3.8.5 1.5.5.4 0 .8-.2 1.4-.5.5-.3 1.1-.8 1.7-1.5.5-.5.9-1 1.4-1.5.5-.5.9-1 1.3-1.5.2-.3.3-.5.5-.7.1-.2.2-.4.2-.5.2-.3.4-.6.6-.8l.5-.5c.1-.1.1-.2.2-.3.2.3.4.6.5.8 0 .1.1.3.1.5s.1.4.1.6c.3 1.1.7 1.9 1.4 2.4.6.5 1.5.8 2.5.8.5 0 .9-.1 1.2-.2.3-.1.6-.3.8-.6.4-.4.7-.8.9-1l.4-.4c-.1-.3-.2-.6-.4-.9-.3-.6-.4-.9-.6-1.3m-59-7.6c.1-.5.3-1.1.6-1.9.2-.5.5-1 .7-1.4.2-.4.3-.6.4-.9.1-.2.1-.4.1-.5 0-.6.2-1.3.6-1.9.4-.7 1-1.4 1.7-2.1l.1.1c-.1.3-.1.5-.2.8-.1.3-.1.5-.1.8 0 .3-.3 1.1-.8 2.4-.5 1.3-.8 2-1.1 2.3-.3.5-.5.8-.7 1.2-.2.3-.4.6-.5.9-.2.5-.4.8-.6 1-.2.2-.3.4-.5.4l-.1-.2c.2-.2.3-.5.4-1zm-25 4s-.1-.1-.1-.2c0-.4.3-1 .8-1.7.5-.8.9-1.2 1.2-1.2.1 0 .2 0 .2.1s.1.2.1.3c0 .2 0 .4-.1.6-.1.2-.2.4-.4.6-.1.2-.3.3-.4.5-.1.2-.3.3-.4.4-.1.1-.2.3-.3.4-.1.2-.2.2-.4.2-.1.1-.2.1-.2 0zm76.5-.4c-.4.8-1 1.8-1.9 2.9-.8 1.1-1.5 1.9-2.1 2.5-.6.6-1.1 1-1.5 1.1-.1-.1-.2-.2-.2-.3.2-.4.3-.8.5-1.1.4-.7.8-1.3 1.1-1.8.3-.5.5-.9.7-1.1.6-.7 1.1-1.3 1.4-1.8.3-.5.6-.8.7-1 .4-.3.8-.6 1.1-.9.3-.3.6-.5.8-.7.1.1.1.2.1.3-.1.5-.3 1.1-.7 1.9z"/><path class="st3" d="M128.5 45.7c-1.7 0-3.2-.8-4.1-2.1-.4-.6-.7-1.4-.9-2.2-.3.2-.5.4-.8.5-.8.5-1.7.8-2.5 1l-.9.3c-.5.1-1 .2-1.6.2-.9 0-1.7-.1-2.4-.4-.8-.3-1.5-.8-2-1.4-.3-.3-.6-.8-.9-1.3-.2-.3-.3-.7-.5-1.2 0-.1 0-.1-.1-.1 0 .1.1.1.1.1.4.6-1.7-.6-1.7-.6 0-.1-.1-.2-.1-.3-.1-.3-.3-.6-.5-1.1l.1-2.7c.3-.5.6-.9 1-1.4.1-.2.3-.3.4-.5v-.3l.1-.5c.1-.3.2-.6.3-1 .1-.3.4-1 .4-1 .1-.3.3-.8.6-1.3.3-.6.6-1.1 1-1.8l.3-.4c.3-.3.5-.6.8-.9.3-.4.6-.7.9-1.1l.4-.4c.2-.2.5-.4.8-.6.1-.1.2-.1.3-.2l.9-.5c.3-.1.6-.2.9-.2.4-.1.8-.1 1.2-.1.7 0 1.2.1 1.7.2.7.2 1.4.7 1.9 1.3.3.3.5.7.7 1.3.1.3.3.7.4 1.2l.1.3c0 .2.1.4.1.7.3-.2.6-.4 1-.7.8-.6 1.7-1.1 2.7-1.1 1.4 0 2.7.9 3.2 2.3.1.2.2.5.2.8.2-1.1.6-1.9 1-2.6.8-1.2 2.1-1.8 3.5-1.8 1.1 0 2 .5 2.6 1.3.3.4.6 1.1.6 2.1 0 .8-.1 1.6-.3 2.4l-.6 1.8c-.1.5-.2 1-.4 1.5-.2.6-.5 1.1-.9 1.8 0 .1-.1.3-.1.4-.1.5-.3 1.1-1.3 2.8-.4.8-.7 1.3-.9 1.6-.2.6-.4 1.1-.8 1.7-.4.6-1 1.2-1.7 1.9-.1.2-.3.3-.4.5-.1.1-.2.3-.3.4-.3.4-.8.8-1.3 1.1-.8.1-1.5.3-2.2.3"/><path class="st2" d="M136.8 27.3c0-.2 0-.3-.1-.3-.1-.1-.2-.1-.3-.1-.5 0-.9.2-1.1.6-.3.4-.5 1-.6 1.7-.1.4-.3 1.1-.6 2-.4.9-.9 2-1.6 3.4-.7 1.4-1.3 2.5-1.8 3.1-.5.7-.9 1-1.1 1-.2 0-.4-.4-.5-1.2-.1-.8-.2-2-.2-3.7 0-.2.1-.3.1-.4 0-.1-.1-.2-.1-.3 0-.1-.1-.2-.1-.2.1-.3.1-.7.2-1.2v-1.9c0-.5 0-.9-.1-1.2-.1-.3-.2-.4-.4-.4-.1 0-.5.2-1 .6-.6.4-.8.6-.9.7-.3.6-.5 1.2-.8 1.7-.2.5-.4.9-.6 1.2-.1.3-.3.6-.5.9-.3.3-.6.7-1 1.1-.4.4-.7.7-.9 1-.2.3-.3.5-.4.6-.1.1-.3.2-.4.3-.2.1-.3.1-.3.2-.3.2-.7.4-1.2.5-.4.1-.9.2-1.5.3-.3-.1-.6-.1-.9-.2-.2-.1-.4-.2-.5-.2-.2-.1-.3-.3-.4-.5-.1-.2-.2-.5-.2-.8 0-.2 0-.3.1-.5.1-.1.2-.3.2-.4 1.1-1.1 2.1-2.1 2.7-3 .7-.9 1.1-1.6 1.3-2.3l.2-.7c.1-.3.2-.6.2-.7 0-.2.1-.2.1-.1-.1-.3-.1-.6-.1-.9-.1-.3-.2-.6-.3-.8-.1-.2-.2-.4-.3-.5-.1-.2-.3-.3-.5-.4-.2-.1-.5-.1-.8-.1-.2 0-.5 0-.7.1-.2 0-.4.1-.6.1-.2.1-.4.3-.5.4-.2.1-.3.2-.5.4-.3.4-.6.8-.9 1.1-.3.4-.6.7-.9 1-.3.6-.6 1.1-.8 1.5-.2.5-.4.8-.5 1.1-.1.3-.2.6-.3.8-.1.3-.2.5-.2.7 0 .3 0 .5-.1.8 0 .3-.1.5-.1.8-.4.3-.7.6-1 .9-.3.3-.5.6-.6.9.2.5.4.8.5 1.1.1.3.2.6.3.8.2-.2.3-.4.5-.5.1-.1.3-.2.4-.2.1 0 .3.1.4.2.1.1.2.4.4.7.2.4.3.7.4 1 .1.3.3.5.4.6.3.3.6.5 1 .7.4.2.8.2 1.4.2.4 0 .7 0 1-.1.3-.1.5-.2.8-.3.5 0 1.1-.2 1.8-.6.6-.4 1.4-1 2.1-1.7.8-.8 1.3-1.5 1.8-1.9.4-.4.7-.7.8-.7l.2.1-.1.5c0 .1.1.3.1.6v1.1c0 .3.1.6.1.9.1.3.1.5.2.7 0 .2 0 .3-.1.5 0 1.1.2 2 .6 2.5.4.6 1 .8 1.7.8.2 0 .5-.1.6-.2.2-.1.4-.3.5-.4.1-.2.3-.3.4-.5.2-.2.3-.3.4-.5.7-.6 1.1-1.1 1.5-1.6.3-.5.5-.9.5-1.2.2-.2.5-.8 1.1-1.9.6-1.1.9-1.7.9-1.9.1-.4.2-.7.3-1.1.4-.6.6-1.1.8-1.5.2-.5.3-.9.3-1.3.3-.6.5-1.1.7-1.7-.1-.6 0-1.2 0-1.7m-20.1 4.8s-.1-.1-.1-.2c0-.4.3-1 .8-1.7.5-.8.9-1.2 1.2-1.2.1 0 .2 0 .2.1s.1.2.1.3c0 .2 0 .4-.1.6-.1.2-.2.4-.4.6-.1.2-.3.3-.4.5-.1.2-.3.3-.4.4-.1.1-.2.3-.3.4-.1.2-.2.2-.4.2-.1.1-.1.1-.2 0z"/><path d="M36.1 55c.2-1 .7-1.7 1.5-2.2.5-.3 1-.6 1.4-.9 2.8-2 5.4-4.1 7.4-6.9.2-.3.5-.7.5-1 .1-.8.5-1.1 1.1-1.3 1-.4 1.9-.7 2.9-1.1.8-.3 1.2-1 1.5-1.8.1-.2-.1-.5-.3-.7-.2-.2-.6-.3-.9-.5-.3-.2-.7-.3-.5-.8.1-.2-.1-.5-.3-.7-1.4-1.3-2.6-2.8-3.6-4.4 0-.1-.1-.2-.2-.2-1.4-.9-1.2-2.4-1.3-3.7 0-.3.1-.7.3-1 .1-.2.4-.4.6-.4.2 0 .4.2.5.4.1.3.2.6.3 1 .1.3.3.7.4.9.4-.2.8-.3 1.1-.5 0 .1.1.1.1.2-.2.5-.5 1-.7 1.5-.2.5-.2 1 .3 1.4 1.2 1.1 2.4 2.1 3.5 3.2 1.5 0 2 1.7 3.4 2.1-.1-1-.3-2.1-.3-3.1 0-.3.2-.6.2-.9 0-.2 0-.5.1-.7.1-.2.3-.5.5-.6.7-.2 1.5-.3 2.2-.5.3-.1.5-.2.7-.4.5-.5.7-.6 1 .1.1.1.1.3.3.5.4-1 .8-1.9 1.2-2.7.1 0 .1.1.2.1.1 1.1-.1 2.2-.8 3.2-.3.3-.3.6-.2 1 .2 1.4-.1 2.8-1.1 3.9-.2.3-.6.4-1.1.6-.2.6.6 2.3 2 4.1-.1.2-.2.3-.4.5.3.5.6.9.9 1.4.6.8 1 .8 1.8.3.3-.2.7-.4 1.1-.5.3-.1.7 0 1 0 0 .1.1.2.1.2L63 45.3c.3.2.6.3.9.5-.8.5-1.7.5-2.4.1-1-.6-1.8-1.3-2.7-2-.2-.1-.5-.4-.6-.3-.6.2-.8-.2-.9-.6-.1-.3-.1-.5-.3-1-.8.6-1.5 1.2-2.3 1.8.7 1.2.7 2.4.7 3.7 0 .6.2 1.3.2 1.9.1 1.2-.3 1.6-1.5 1.4-1.2-.2-2.4-.4-3.7-.6-.9-.1-2 .5-2.3 1.3 0 .1-.1.3-.2.4-.7.5-1.3 1-2 1.5-.6-1.4-.4-1.9.5-2.7.4-.3.7-.8 1.1-1.1.4-.3.7-.6 1.1-.9.2-.1.6 0 .7.1.4.6.9.3 1.3.2.7-.2 1.4-.4 2.1-.7-.2-.4-.5-1-.9-1.5-.1-.1-.4-.1-.6-.1-.5.1-.9.2-1.4.3-.3 0-.5-.2-1-.4-1 .7-2.1 1.6-3.3 2.4-.4.3-.8.4-1.2.7-.3.2-.6.3-.7.5-.5.9-1.4 1.3-2.3 1.6-.2.1-.4.2-.6.2 0 .6-.7 1.4-1.4 1.6-.3.1-.6.3-.7.5-.4 1.1-1 1.3-2.5.9zM9.5 43.7c-.4.2-.8.4-1.4.6.1-.4.1-.8.3-.9.8-.4.6-1.1.6-1.8-1-.3-1.5.9-2.4 1-.3-.9.8-2 1.7-1.9.4 0 .8-.1 1.2-.1.6 0 1.2-.1 1.8 0 1.4.3 2.7.4 4.1-.1 1-.4 2.1-.6 3.1-.9.2 0 .4-.2.4-.3-.1-.2-.2-.5-.3-.6-1.2-.7-2.4-1.4-3.7-2.1-.8-.5-1.2-1.6-.7-2.5.3.4.5.7.8 1.1.1-.1.3-.2.5-.3 0 .1.1.2.1.2-.2.8.1 1.3.9 1.6.8.3 1.5.8 2.3 1.1.1.1.3.1.5.1 0-.2 0-.4.1-.6.2-.1.4-.2.8-.3-.2-.1-.3-.1-.4-.2-.1-.1-.2-.3-.3-.5.2 0 .4-.2.5-.1.5.2.8.2.9-.5 0-.1.3-.3.4-.3.5.4.9 0 1.4-.1.2 0 .4-.1.6-.2 1.1-.2 1.8.4 1.7 1.5 0 .1-.2.2-.3.2l-.2-.2c-.1.4-.1.8-.2 1.2 0 .2-.1.5-.2.6-.5.7-.2 1.3.5 1.5.2 0 .4.1.6.2.9.5 1.9.8 2.9.4.2-.1.4 0 .9.1-.4.3-.7.4-1 .6.1.2.1.4.2.6-.1 0-.2.1-.2 0-1-.4-2.1-.7-3.2-.7-.2 0-.5-.1-.7-.3-.8-.6-1.6-.4-2.3 0-.3.1-.3.6-.6.8-.8.9-1.7 1.7-2.4 2.7-1.3 1.7-2.9 2.8-4.8 3.6-.7.3-1.3.9-2 1.2-.7.3-1.1.1-1.2-.7-.1-.4 0-.8 0-1.2 0-1.4-.3-2.2-1.3-3.5z" fill="#080808"/></svg>