<svg xmlns="http://www.w3.org/2000/svg" viewBox="0 0 33.7 36.7">
  <path d="M11.5 36.7c-2.9 0-5.5-1.1-7.5-3.1l-1-1c-4-4.2-4-10.8.1-14.9L15.9 5.1c3.6-3.6 6.8-5.2 9.8-5.1 2.2.1 4.3 1.2 6.1 3.3 4 4.8.9 8.1-1.6 10.8l-.7.7-13.2 13c-2.1 2-5.4 2-7.5 0-1-1-1.5-2.3-1.5-3.8 0-1.4.6-2.7 1.6-3.7l8.1-8c.6-.6 1.5-.6 2.1 0s.6 1.5 0 2.1l-8.1 8c-.4.4-.7 1-.7 1.6 0 .6.2 1.2.7 1.6.9.9 2.3.9 3.2 0l13.1-12.9c.2-.2.4-.5.7-.7 2.7-2.9 3.8-4.2 1.5-6.9-1.2-1.5-2.5-2.2-3.9-2.3C23.5 2.7 21 4.1 18 7L5.2 19.8c-2.9 2.9-3 7.6-.1 10.6l1 1c2.9 2.9 7.6 3 10.6.1l9.9-9.8c.6-.6 1.5-.6 2.1 0 .6.6.6 1.5 0 2.1l-9.9 9.8c-1.9 2-4.5 3.1-7.3 3.1z"/>
</svg>
