<svg xmlns="http://www.w3.org/2000/svg" viewBox="0 0 37.4 34.4">
  <path d="M27.8 2.6h-.3V1.5C27.5.7 26.8 0 26 0s-1.5.7-1.5 1.5v1.1H13.1V1.5c0-.8-.7-1.5-1.5-1.5s-1.5.7-1.5 1.5v1.1h-.6C4.3 2.6 0 6.9 0 12.1v12.8c0 5.3 4.3 9.5 9.5 9.5h18.3c5.3 0 9.5-4.3 9.5-9.5V12.1c.1-5.2-4.2-9.5-9.5-9.5zm-18.3 3h.6v.7c0 .8.7 1.5 1.5 1.5s1.5-.7 1.5-1.5v-.7h11.5v.7c0 .8.7 1.5 1.5 1.5s1.5-.7 1.5-1.5v-.7h.3c3.6 0 6.5 2.9 6.5 6.5v1.1H3v-1.1c0-3.6 2.9-6.5 6.5-6.5zm18.3 25.8H9.5c-3.6 0-6.5-2.9-6.5-6.5v-8.7h31.4v8.7c0 3.6-3 6.5-6.6 6.5z" fill="#0c0101"/>
</svg>
