<svg version="1.1" id="Слой_2" xmlns="http://www.w3.org/2000/svg" x="0" y="0" viewBox="0 0 44.9 41.1" xml:space="preserve">
  <path d="M37.4 19.5v-7.4c0-5.3-4.3-9.5-9.5-9.5h-.3V1.5c0-.8-.7-1.5-1.5-1.5s-1.5.7-1.5 1.5v1.1H13.1V1.5c0-.8-.7-1.5-1.5-1.5s-1.5.7-1.5 1.5v1.1h-.6C4.3 2.6 0 6.9 0 12.1v12.8c0 5.3 4.3 9.5 9.5 9.5h14.2c1.7 3.9 5.6 6.7 10.2 6.7C40 41.1 45 36.1 45 30c-.1-4.9-3.2-9-7.6-10.5zM9.5 5.6h.6v.7c0 .8.7 1.5 1.5 1.5s1.5-.7 1.5-1.5v-.7h11.5v.7c0 .8.7 1.5 1.5 1.5s1.5-.7 1.5-1.5v-.7h.3c3.6 0 6.5 2.9 6.5 6.5v1.1H3v-1.1c0-3.6 2.9-6.5 6.5-6.5zm0 25.8c-3.6 0-6.5-2.9-6.5-6.5v-8.7h31.4V19h-.5c-6.1 0-11.1 5-11.1 11.1 0 .5 0 .9.1 1.4H9.5zm24.3 6.7c-4.5 0-8.1-3.6-8.1-8.1s3.6-8.1 8.1-8.1 8.1 3.6 8.1 8.1-3.6 8.1-8.1 8.1z"/>
  <path d="M36.4 26.8L33 30.9l-1.9-1.6c-.6-.5-1.6-.5-2.1.2-.5.6-.5 1.6.2 2.1l3.1 2.6c.3.2.6.4 1 .4h.1c.4 0 .8-.2 1-.5l4.4-5.3c.5-.6.4-1.6-.2-2.1-.7-.6-1.6-.5-2.2.1z"/>
</svg>
