<svg xmlns="http://www.w3.org/2000/svg" viewBox="0 0 14.5 11.2">
  <path d="M14.5 5.3c-.1-.2-2.7-3.8-7.2-3.8-.9 0-1.8.2-2.5.4L3.3.2c-.2-.2-.5-.3-.7-.1-.2.2-.2.5-.1.7l1.2 1.4C1.4 3.3.1 5.1 0 5.2c0 .3 0 .5.1.6.1.2 2.7 3.9 7.2 3.9.9 0 1.8-.2 2.5-.4l1.5 1.7c.1.1.2.2.4.2.1 0 .2 0 .3-.1.2-.2.2-.5.1-.7l-1.3-1.5c2.3-1.1 3.6-2.9 3.7-3 .1-.2.1-.4 0-.6zM7.3 8.7C4 8.7 1.8 6.4 1.1 5.6c.5-.6 1.6-1.8 3.4-2.5l1.1 1.3c-.3.3-.5.7-.5 1.2 0 1.2 1 2.1 2.1 2.1.4 0 .7-.1 1-.2l.8.9c-.5.2-1.1.3-1.7.3zm2.8-.6L9 6.8c.3-.3.4-.8.4-1.2 0-1.2-1-2.1-2.1-2.1-.4 0-.7.1-1 .2l-.8-1c.5-.1 1.1-.2 1.8-.2 3.3 0 5.5 2.3 6.1 3.1-.4.5-1.6 1.7-3.3 2.5z" fill="#0c0101"/>
</svg>
