<svg xmlns="http://www.w3.org/2000/svg" viewBox="0 0 40.9 34.3">
  <path d="M21.4 0C10.7 0 2 6.7 2 15c0 3.1 1.2 6.1 3.5 8.6-.4 1.9-1.6 5.9-4.8 8-.5.4-.8 1.1-.6 1.7.2.6.8 1.1 1.4 1.1.3 0 7.8-.1 13-5.3 2.2.7 4.5 1 6.9 1 10.7 0 19.5-6.7 19.5-15C40.9 6.7 32.2 0 21.4 0zm0 27c-2.4 0-4.7-.4-6.9-1.1-.1 0-.2-.1-.3-.1H14 13.7h-.1c-.1 0-.1 0-.2.1h-.1c-.1 0-.1.1-.2.1 0 0-.1 0-.1.1-.1.1-.2.1-.2.2-2 2.4-4.8 3.7-7.1 4.3 1.9-2.9 2.6-6 2.8-7.2v-.2-.1c0-.2 0-.4-.1-.5v-.1c-.1-.2-.2-.3-.3-.5C6 20 5 17.6 5 15 5 8.4 12.3 3 21.4 3s16.5 5.4 16.5 12c0 6.7-7.4 12-16.5 12z"/>
</svg>
