<svg xmlns="http://www.w3.org/2000/svg" viewBox="0 0 12.7 16">
  <path d="M12.6 13c-1.8-1.4-2.1-1.8-1.7-4.4.1-1.1.3-3.8-1.2-5.5-.5-.6-1.2-.9-1.9-1.1 0-.1.1-.3.1-.5C7.9.7 7.2 0 6.4 0S4.9.7 4.9 1.5c0 .2 0 .3.1.4-.8.3-1.4.6-1.9 1.2-1.5 1.7-1.4 4.4-1.2 5.5.3 2.6.1 3-1.7 4.4-.2.1-.2.3-.2.4.1.2.2.3.4.3h3.5C4 15 5.1 16 6.4 16s2.4-1 2.5-2.3h3.5c.2 0 .3-.1.4-.3 0-.1-.1-.3-.2-.4zM5.9 1.5c0-.3.2-.5.5-.5s.5.2.5.5c0 .1 0 .2-.1.3H6c-.1-.1-.1-.2-.1-.3zM6.4 15c-.8 0-1.4-.6-1.5-1.3h2.9c0 .7-.7 1.3-1.4 1.3z" fill="#0c0101"/>
</svg>
