<svg style="display: none;" xmlns="http://www.w3.org/2000/svg">

  <symbol id="icon-user" viewBox="0 0 20.2 24.2">
    <path d="M13.7 14c2.3-1.3 3.9-3.7 3.9-6.5 0-4.1-3.3-7.4-7.4-7.4S2.7 3.3 2.7 7.4c0 2.8 1.6 5.3 3.9 6.5C2.7 15.4 0 19.1 0 23.4c0 .4.4.8.8.8s.8-.4.8-.8c0-4.7 3.8-8.5 8.5-8.5s8.5 3.8 8.5 8.5c0 .4.4.8.8.8s.8-.4.8-.8c0-4.3-2.7-8-6.5-9.4zM4.3 7.4c0-3.2 2.6-5.8 5.8-5.8S16 4.2 16 7.4s-2.6 5.8-5.8 5.8-5.9-2.5-5.9-5.8z"/>
  </symbol>

  <symbol id="icon-search" viewBox="0 0 22.1 22">
    <path d="M21.9 20.7L16 15.2c1.4-1.6 2.3-3.7 2.3-6 0-5-4.1-9.1-9.1-9.1C4.1 0 0 4.1 0 9.1s4.1 9.1 9.1 9.1c2.2 0 4.2-.8 5.8-2.1l6 5.6c.1.1.3.2.5.2s.4-.1.5-.2c.3-.2.3-.7 0-1zM1.4 9.1c0-4.3 3.5-7.7 7.7-7.7 4.3 0 7.7 3.5 7.7 7.7s-3.5 7.7-7.7 7.7c-4.2.1-7.7-3.4-7.7-7.7z"/>
  </symbol>

  <symbol id="icon-mail" viewBox="0 0 512 512">
    <path d="M467 61H45C20.218 61 0 81.196 0 106v300c0 24.72 20.128 45 45 45h422c24.72 0 45-20.128 45-45V106c0-24.72-20.128-45-45-45zm-6.214 30L256.954 294.833 51.359 91h409.427zM30 399.788V112.069l144.479 143.24L30 399.788zM51.213 421l144.57-144.57 50.657 50.222c5.864 5.814 15.327 5.795 21.167-.046L317 277.213 460.787 421H51.213zM482 399.787L338.213 256 482 112.212v287.575z"/>
  </symbol>

  <symbol id="icon-facebook" viewBox="0 0 50 50">
    <path d="M25 3C12.862 3 3 12.862 3 25c0 11.02 8.128 20.138 18.713 21.729l1.148.173V29.566h-5.197v-3.52h5.197v-4.673c0-2.878.691-4.774 1.834-5.963 1.144-1.19 2.833-1.789 5.184-1.789 1.88 0 2.611.114 3.307.2v2.88h-2.448a3.59 3.59 0 00-3.119 1.807c-.591 1.032-.775 2.264-.775 3.52v4.017h6.123l-.545 3.52h-5.578V46.93l1.135-.155C38.714 45.32 47 36.127 47 25c0-12.138-9.862-22-22-22zm0 2c11.058 0 20 8.942 20 20 0 9.73-6.964 17.732-16.156 19.533V31.564h5.293l1.162-7.52h-6.455v-2.017c0-1.037.19-1.967.51-2.525.32-.558.628-.8 1.384-.8h4.448V12.01l-.868-.117c-.6-.082-1.969-.272-4.44-.272-2.702 0-5.022.736-6.624 2.402-1.602 1.666-2.393 4.147-2.393 7.35v2.674h-5.197v7.52h5.197V44.47C11.817 42.555 5 34.624 5 25 5 13.942 13.942 5 25 5z"/>
  </symbol>

  <symbol id="icon-youtube" viewBox="0 0 50 50">
    <path d="M24.402 9c-6.601 0-12.8.5-16.101 1.2-2.2.5-4.102 2-4.5 4.3C3.402 16.898 3 20.5 3 25s.398 8 .898 10.5c.403 2.2 2.301 3.8 4.5 4.3 3.504.7 9.5 1.2 16.102 1.2s12.598-.5 16.098-1.2c2.203-.5 4.101-2 4.5-4.3.402-2.5.902-6.098 1-10.598 0-4.5-.5-8.101-1-10.601-.399-2.2-2.297-3.801-4.5-4.301-3.5-.5-9.598-1-16.196-1zm0 2c7.2 0 12.996.598 15.797 1.098 1.5.402 2.7 1.402 2.899 2.703.601 3.199 1 6.601 1 10.101C44 29.2 43.5 32.7 43.098 35.2c-.297 1.899-2.297 2.5-2.899 2.703-3.601.7-9.601 1.196-15.601 1.196S12.5 38.699 9 37.902C7.5 37.5 6.3 36.5 6.102 35.2 5.3 32.4 5 28.7 5 25c0-4.602.402-8 .8-10.098C6.103 13 8.2 12.398 8.7 12.2 12 11.5 18.101 11 24.401 11zM19 17v16l14-8zm2 3.402L29 25l-8 4.598z"/>
  </symbol>

  <symbol id="icon-instagram" viewBox="0 0 50 50">
    <path d="M16 3C8.832 3 3 8.832 3 16v18c0 7.168 5.832 13 13 13h18c7.168 0 13-5.832 13-13V16c0-7.168-5.832-13-13-13H16zm0 2h18c6.086 0 11 4.914 11 11v18c0 6.086-4.914 11-11 11H16C9.914 45 5 40.086 5 34V16C5 9.914 9.914 5 16 5zm21 6a2 2 0 00-2 2 2 2 0 002 2 2 2 0 002-2 2 2 0 00-2-2zm-12 3c-6.063 0-11 4.937-11 11s4.937 11 11 11 11-4.937 11-11-4.937-11-11-11zm0 2c4.982 0 9 4.018 9 9s-4.018 9-9 9-9-4.018-9-9 4.018-9 9-9z"/>
  </symbol>

  <symbol id="icon-triangular-right" viewBox="0 0 123.958 123.959">
    <path d="M38.217 1.779c-3.8-3.8-10.2-1.1-10.2 4.2v112c0 5.3 6.4 8 10.2 4.2l56-56c2.3-2.301 2.3-6.101 0-8.401l-56-55.999z"/>
  </symbol>

  <symbol id="icon-arrow-left" viewBox="0 0 492 492">
    <path d="M464.344 207.418l.768.168H135.888l103.496-103.724c5.068-5.064 7.848-11.924 7.848-19.124 0-7.2-2.78-14.012-7.848-19.088L223.28 49.538c-5.064-5.064-11.812-7.864-19.008-7.864-7.2 0-13.952 2.78-19.016 7.844L7.844 226.914C2.76 231.998-.02 238.77 0 245.974c-.02 7.244 2.76 14.02 7.844 19.096l177.412 177.412c5.064 5.06 11.812 7.844 19.016 7.844 7.196 0 13.944-2.788 19.008-7.844l16.104-16.112c5.068-5.056 7.848-11.808 7.848-19.008 0-7.196-2.78-13.592-7.848-18.652L134.72 284.406h329.992c14.828 0 27.288-12.78 27.288-27.6v-22.788c0-14.82-12.828-26.6-27.656-26.6z"/>
  </symbol>

  <symbol id="icon-arrow-right" viewBox="0 0 492.004 492.004">
    <path d="M484.14 226.886L306.46 49.202c-5.072-5.072-11.832-7.856-19.04-7.856-7.216 0-13.972 2.788-19.044 7.856l-16.132 16.136c-5.068 5.064-7.86 11.828-7.86 19.04 0 7.208 2.792 14.2 7.86 19.264L355.9 207.526H26.58C11.732 207.526 0 219.15 0 234.002v22.812c0 14.852 11.732 27.648 26.58 27.648h330.496L252.248 388.926c-5.068 5.072-7.86 11.652-7.86 18.864 0 7.204 2.792 13.88 7.86 18.948l16.132 16.084c5.072 5.072 11.828 7.836 19.044 7.836 7.208 0 13.968-2.8 19.04-7.872l177.68-177.68c5.084-5.088 7.88-11.88 7.86-19.1.016-7.244-2.776-14.04-7.864-19.12z"/>
  </symbol>

  <symbol id="icon-facebook-simple" viewBox="0 0 24 24">
    <path d="M17.525 9H14V7c0-1.032.084-1.682 1.563-1.682h1.868v-3.18A26.065 26.065 0 0014.693 2C11.98 2 10 3.657 10 6.699V9H7v4l3-.001V22h4v-9.003l3.066-.001L17.525 9z"/>
  </symbol>

  <symbol id="icon-vk-simple" viewBox="0 0 511.962 511.962">
    <path d="M507.399 370.471c-1.376-2.304-9.888-20.8-50.848-58.816-42.88-39.808-37.12-33.344 14.528-102.176 31.456-41.92 44.032-67.52 40.096-78.464-3.744-10.432-26.88-7.68-26.88-7.68l-76.928.448s-5.696-.768-9.952 1.76c-4.128 2.496-6.784 8.256-6.784 8.256s-12.192 32.448-28.448 60.032c-34.272 58.208-48 61.28-53.6 57.664-13.024-8.416-9.76-33.856-9.76-51.904 0-56.416 8.544-79.936-16.672-86.016-8.384-2.016-14.528-3.36-35.936-3.584-27.456-.288-50.72.096-63.872 6.528-8.768 4.288-15.52 13.856-11.392 14.4 5.088.672 16.608 3.104 22.72 11.424 7.904 10.72 7.616 34.848 7.616 34.848s4.544 66.4-10.592 74.656c-10.4 5.664-24.64-5.888-55.2-58.72-15.648-27.04-27.488-56.96-27.488-56.96s-2.272-5.568-6.336-8.544c-4.928-3.616-11.84-4.768-11.84-4.768l-73.152.448s-10.976.32-15.008 5.088c-3.584 4.256-.288 13.024-.288 13.024s57.28 133.984 122.112 201.536c59.488 61.92 127.008 57.856 127.008 57.856h30.592s9.248-1.024 13.952-6.112c4.352-4.672 4.192-13.44 4.192-13.44s-.608-41.056 18.464-47.104c18.784-5.952 42.912 39.68 68.48 57.248 19.328 13.28 34.016 10.368 34.016 10.368l68.384-.96s35.776-2.208 18.816-30.336z"/>
  </symbol>

  <symbol id="icon-twitter-simple" viewBox="0 0 512 512">
    <path d="M512 97.248c-19.04 8.352-39.328 13.888-60.48 16.576 21.76-12.992 38.368-33.408 46.176-58.016-20.288 12.096-42.688 20.64-66.56 25.408C411.872 60.704 384.416 48 354.464 48c-58.112 0-104.896 47.168-104.896 104.992 0 8.32.704 16.32 2.432 23.936-87.264-4.256-164.48-46.08-216.352-109.792-9.056 15.712-14.368 33.696-14.368 53.056 0 36.352 18.72 68.576 46.624 87.232-16.864-.32-33.408-5.216-47.424-12.928v1.152c0 51.008 36.384 93.376 84.096 103.136-8.544 2.336-17.856 3.456-27.52 3.456-6.72 0-13.504-.384-19.872-1.792 13.6 41.568 52.192 72.128 98.08 73.12-35.712 27.936-81.056 44.768-130.144 44.768-8.608 0-16.864-.384-25.12-1.44C46.496 446.88 101.6 464 161.024 464c193.152 0 298.752-160 298.752-298.688 0-4.64-.16-9.12-.384-13.568 20.832-14.784 38.336-33.248 52.608-54.496z"/>
  </symbol>

  <symbol id="icon-notification" viewBox="0 0 12.7 16">
    <path d="M12.6 13c-1.8-1.4-2.1-1.8-1.7-4.4.1-1.1.3-3.8-1.2-5.5-.5-.6-1.2-.9-1.9-1.1 0-.1.1-.3.1-.5C7.9.7 7.2 0 6.4 0S4.9.7 4.9 1.5c0 .2 0 .3.1.4-.8.3-1.4.6-1.9 1.2-1.5 1.7-1.4 4.4-1.2 5.5.3 2.6.1 3-1.7 4.4-.2.1-.2.3-.2.4.1.2.2.3.4.3h3.5C4 15 5.1 16 6.4 16s2.4-1 2.5-2.3h3.5c.2 0 .3-.1.4-.3 0-.1-.1-.3-.2-.4zM5.9 1.5c0-.3.2-.5.5-.5s.5.2.5.5c0 .1 0 .2-.1.3H6c-.1-.1-.1-.2-.1-.3zM6.4 15c-.8 0-1.4-.6-1.5-1.3h2.9c0 .7-.7 1.3-1.4 1.3z"/>
  </symbol>

  <symbol id="icon-download" viewBox="0 0 21.6 21.2">
    <path d="M10.1 15.6c.1.1.3.2.5.2s.4-.1.5-.2l3.7-3.8c.3-.3.3-.7 0-1-.3-.3-.7-.3-1 0l-2.4 2.5V.7c-.1-.4-.4-.7-.8-.7s-.7.3-.7.7v12.6l-2.3-2.4c-.3-.3-.7-.3-1 0-.3.3-.3.7 0 1l3.5 3.7z"/>
    <path d="M20.9 15.5c-.4 0-.7.3-.7.7V18c0 .9-.8 1.7-1.7 1.7H3.1c-.9 0-1.7-.8-1.7-1.7v-1.8c0-.4-.3-.7-.7-.7s-.7.3-.7.7V18c0 1.7 1.4 3.1 3.1 3.1h15.3c1.7 0 3.1-1.4 3.1-3.1v-1.8c.1-.4-.2-.7-.6-.7z"/>
  </symbol>

  <symbol id="icon-message-bubble" viewBox="0 0 40.9 34.3">
    <path d="M21.4 0C10.7 0 2 6.7 2 15c0 3.1 1.2 6.1 3.5 8.6-.4 1.9-1.6 5.9-4.8 8-.5.4-.8 1.1-.6 1.7.2.6.8 1.1 1.4 1.1.3 0 7.8-.1 13-5.3 2.2.7 4.5 1 6.9 1 10.7 0 19.5-6.7 19.5-15C40.9 6.7 32.2 0 21.4 0zm0 27c-2.4 0-4.7-.4-6.9-1.1-.1 0-.2-.1-.3-.1H14 13.7h-.1c-.1 0-.1 0-.2.1h-.1c-.1 0-.1.1-.2.1 0 0-.1 0-.1.1-.1.1-.2.1-.2.2-2 2.4-4.8 3.7-7.1 4.3 1.9-2.9 2.6-6 2.8-7.2v-.2-.1c0-.2 0-.4-.1-.5v-.1c-.1-.2-.2-.3-.3-.5C6 20 5 17.6 5 15 5 8.4 12.3 3 21.4 3s16.5 5.4 16.5 12c0 6.7-7.4 12-16.5 12z"/>
  </symbol>

  <symbol id="icon-clip" viewBox="0 0 33.7 36.7">
    <path d="M11.5 36.7c-2.9 0-5.5-1.1-7.5-3.1l-1-1c-4-4.2-4-10.8.1-14.9L15.9 5.1c3.6-3.6 6.8-5.2 9.8-5.1 2.2.1 4.3 1.2 6.1 3.3 4 4.8.9 8.1-1.6 10.8l-.7.7-13.2 13c-2.1 2-5.4 2-7.5 0-1-1-1.5-2.3-1.5-3.8 0-1.4.6-2.7 1.6-3.7l8.1-8c.6-.6 1.5-.6 2.1 0s.6 1.5 0 2.1l-8.1 8c-.4.4-.7 1-.7 1.6 0 .6.2 1.2.7 1.6.9.9 2.3.9 3.2 0l13.1-12.9c.2-.2.4-.5.7-.7 2.7-2.9 3.8-4.2 1.5-6.9-1.2-1.5-2.5-2.2-3.9-2.3C23.5 2.7 21 4.1 18 7L5.2 19.8c-2.9 2.9-3 7.6-.1 10.6l1 1c2.9 2.9 7.6 3 10.6.1l9.9-9.8c.6-.6 1.5-.6 2.1 0 .6.6.6 1.5 0 2.1l-9.9 9.8c-1.9 2-4.5 3.1-7.3 3.1z"/>
  </symbol>

  <symbol id="icon-place" viewBox="0 0 24 24">
    <path d="M12 22s-8-4.5-8-11.8A8 8 0 0112 2a8 8 0 018 8.2c0 7.3-8 11.8-8 11.8z"/><circle cx="12" cy="10" r="3"/>
  </symbol>

  <symbol id="icon-menu" viewBox="0 0 30 23">
    <path d="M0 0h30v3H0zm0 10h20v3H0zm0 10h30v3H0z"/>
  </symbol>

  <symbol id="icon-eye-open" viewBox="0 0 14.5 8.2">
    <path d="M7.3 8.2C2.8 8.2.2 4.5.1 4.4 0 4.2 0 4 .1 3.8.2 3.7 2.8 0 7.3 0s7.1 3.7 7.2 3.8c.1.2.1.4 0 .6-.2.1-2.7 3.8-7.2 3.8zM1.1 4.1c.7.8 2.9 3.1 6.2 3.1 3.3 0 5.5-2.3 6.1-3.1-.7-.8-2.9-3.1-6.1-3.1C4 1 1.8 3.3 1.1 4.1z"/>
    <circle cx="7.3" cy="4.1" r="2.1"/>
  </symbol>

  <symbol id="icon-eye-close" viewBox="0 0 14.5 11.2">
    <path d="M14.5 5.3c-.1-.2-2.7-3.8-7.2-3.8-.9 0-1.8.2-2.5.4L3.3.2c-.2-.2-.5-.3-.7-.1-.2.2-.2.5-.1.7l1.2 1.4C1.4 3.3.1 5.1 0 5.2c0 .3 0 .5.1.6.1.2 2.7 3.9 7.2 3.9.9 0 1.8-.2 2.5-.4l1.5 1.7c.1.1.2.2.4.2.1 0 .2 0 .3-.1.2-.2.2-.5.1-.7l-1.3-1.5c2.3-1.1 3.6-2.9 3.7-3 .1-.2.1-.4 0-.6zM7.3 8.7C4 8.7 1.8 6.4 1.1 5.6c.5-.6 1.6-1.8 3.4-2.5l1.1 1.3c-.3.3-.5.7-.5 1.2 0 1.2 1 2.1 2.1 2.1.4 0 .7-.1 1-.2l.8.9c-.5.2-1.1.3-1.7.3zm2.8-.6L9 6.8c.3-.3.4-.8.4-1.2 0-1.2-1-2.1-2.1-2.1-.4 0-.7.1-1 .2l-.8-1c.5-.1 1.1-.2 1.8-.2 3.3 0 5.5 2.3 6.1 3.1-.4.5-1.6 1.7-3.3 2.5z" fill="#0c0101"/>
  </symbol>

  <symbol id="icon-close" viewBox="0 0 492 492">
    <path d="M300.188 246L484.14 62.04c5.06-5.064 7.852-11.82 7.86-19.024 0-7.208-2.792-13.972-7.86-19.028L468.02 7.872C462.952 2.796 456.196.016 448.984.016c-7.2 0-13.956 2.78-19.024 7.856L246.008 191.82 62.048 7.872C56.988 2.796 50.228.016 43.02.016c-7.2 0-13.96 2.78-19.02 7.856L7.872 23.988c-10.496 10.496-10.496 27.568 0 38.052L191.828 246 7.872 429.952C2.808 435.024.02 441.78.02 448.984c0 7.204 2.788 13.96 7.852 19.028l16.124 16.116c5.06 5.072 11.824 7.856 19.02 7.856 7.208 0 13.968-2.784 19.028-7.856l183.96-183.952 183.952 183.952c5.068 5.072 11.824 7.856 19.024 7.856h.008c7.204 0 13.96-2.784 19.028-7.856l16.12-16.116c5.06-5.064 7.852-11.824 7.852-19.028 0-7.204-2.792-13.96-7.852-19.028L300.188 246z"/>
  </symbol>

  <symbol id="icon-arrow" viewBox="0 0 33.7 22.9">
    <path d="M33.3 10.6L22.8.4c-.6-.5-1.5-.5-2 0-.5.6-.5 1.5 0 2l8 7.7H1.4c-.8 0-1.4.6-1.4 1.4 0 .8.6 1.5 1.4 1.5h27.3l-7.9 7.5c-.6.5-.6 1.4-.1 2 .3.3.7.4 1 .4.3 0 .7-.1 1-.4l10.5-9.9c.3-.3.4-.6.4-1 .1-.4 0-.8-.3-1z"/>
  </symbol>

  <symbol id="icon-event" viewBox="0 0 37.4 34.4">
    <path d="M27.8 2.6h-.3V1.5C27.5.7 26.8 0 26 0s-1.5.7-1.5 1.5v1.1H13.1V1.5c0-.8-.7-1.5-1.5-1.5s-1.5.7-1.5 1.5v1.1h-.6C4.3 2.6 0 6.9 0 12.1v12.8c0 5.3 4.3 9.5 9.5 9.5h18.3c5.3 0 9.5-4.3 9.5-9.5V12.1c.1-5.2-4.2-9.5-9.5-9.5zm-18.3 3h.6v.7c0 .8.7 1.5 1.5 1.5s1.5-.7 1.5-1.5v-.7h11.5v.7c0 .8.7 1.5 1.5 1.5s1.5-.7 1.5-1.5v-.7h.3c3.6 0 6.5 2.9 6.5 6.5v1.1H3v-1.1c0-3.6 2.9-6.5 6.5-6.5zm18.3 25.8H9.5c-3.6 0-6.5-2.9-6.5-6.5v-8.7h31.4v8.7c0 3.6-3 6.5-6.6 6.5z" fill="#0c0101"/>
  </symbol>

  <symbol id="icon-event-finish" viewBox="0 0 44.9 41.1">
    <path d="M37.4 19.5v-7.4c0-5.3-4.3-9.5-9.5-9.5h-.3V1.5c0-.8-.7-1.5-1.5-1.5s-1.5.7-1.5 1.5v1.1H13.1V1.5c0-.8-.7-1.5-1.5-1.5s-1.5.7-1.5 1.5v1.1h-.6C4.3 2.6 0 6.9 0 12.1v12.8c0 5.3 4.3 9.5 9.5 9.5h14.2c1.7 3.9 5.6 6.7 10.2 6.7C40 41.1 45 36.1 45 30c-.1-4.9-3.2-9-7.6-10.5zM9.5 5.6h.6v.7c0 .8.7 1.5 1.5 1.5s1.5-.7 1.5-1.5v-.7h11.5v.7c0 .8.7 1.5 1.5 1.5s1.5-.7 1.5-1.5v-.7h.3c3.6 0 6.5 2.9 6.5 6.5v1.1H3v-1.1c0-3.6 2.9-6.5 6.5-6.5zm0 25.8c-3.6 0-6.5-2.9-6.5-6.5v-8.7h31.4V19h-.5c-6.1 0-11.1 5-11.1 11.1 0 .5 0 .9.1 1.4H9.5zm24.3 6.7c-4.5 0-8.1-3.6-8.1-8.1s3.6-8.1 8.1-8.1 8.1 3.6 8.1 8.1-3.6 8.1-8.1 8.1z"/>
    <path d="M36.4 26.8L33 30.9l-1.9-1.6c-.6-.5-1.6-.5-2.1.2-.5.6-.5 1.6.2 2.1l3.1 2.6c.3.2.6.4 1 .4h.1c.4 0 .8-.2 1-.5l4.4-5.3c.5-.6.4-1.6-.2-2.1-.7-.6-1.6-.5-2.2.1z"/>
  </symbol>

</svg>
